<mxfile host="app.diagrams.net" modified="2023-05-09T05:54:00.556Z" agent="Mozilla/5.0 (X11; Linux x86_64) AppleWebKit/537.36 (KHTML, like Gecko) Chrome/112.0.0.0 Safari/537.36" etag="FHFycjlwFnCLcbvie-ub" version="21.2.9" type="device">
  <diagram name="Page-1" id="Q0KYjuOoIm3wm_D-4di_">
    <mxGraphModel dx="1050" dy="1641" grid="1" gridSize="10" guides="1" tooltips="1" connect="1" arrows="1" fold="1" page="1" pageScale="1" pageWidth="850" pageHeight="1100" math="0" shadow="0">
      <root>
        <mxCell id="0" />
        <mxCell id="1" parent="0" />
        <mxCell id="QbFYxGlI5FDIJ1ta77sb-2" value="бізнес-ідеї" style="shape=image;verticalLabelPosition=bottom;labelBackgroundColor=default;verticalAlign=top;aspect=fixed;imageAspect=0;image=data:image/png,iVBORw0KGgoAAAANSUhEUgAAAUMAAAExCAYAAADm2cDNAAAABHNCSVQICAgIfAhkiAAAIABJREFUeF7snQeAnFd178+U7U3Sqher2pIt27hX3G2qO6YXU8IjJCEPAqaEmBBICBB4SXASkwDB9GIbY2ODwTYuuMrdqrasXldle98p7/e/d77Z2dmVdqXdnZ1dzWePZmfmK/eee+//nn5CXV1dScvBEQqFcvCU0X1EOBQe3QcU7l6gwGFSIJFMHOaV+XdZMpkTSOrX8Zys7okAhP0oV/iiQIE8osBE2qjHCi+iozmeY9WpkerTRJpgI0WTw7pPKG6WjFjCCQdhC6e4GP+5947hNEMQ7NETh9s5LLod4kXZ83U8c4vCjlxziDnhDA9xTAunT0QKAIgCuwAIHSxmSEOZf0/E7o9Fn7LBcSzaMJxn5pqZGjXOMNcdGQ7RC9fmiAIAYigDAJNwiundOFApw0GaFTjCkRoRAWKBQxwaNUcFDAtAODTiH2lnCQjDyRjdbufVjejMW0hTsBL4i5rA0VIi9ZFGm9HsbwEQh0bdEQfD8QSE412MGNoQ58FZjttLHclWQHCrWf1GgI/vJs83iy7huxIPjnnQ3InYhGCuj1cuMRc6xBEFw/EEhBNxwudzn4R74SSGlFCLNT7xS9u/ZQXfJGzawjOt+qw/R3wu5YQIzGIGcOZzh8Zp28YzKI42II4oGI7T+VFo9ihRIBEG/HTAGUaSPbwjGu952Vo3P2QzYnCGHA2vdlj1/AssNGsyjGKpxUHNRAoQC0aVURoYbjteRefRBMQCGI7efCvcOZsCDhDbrSzRaOXxvaaJ3RmaxFldfM9voWIt0+yrCp8LFOhDgdECxGGB4XgTiws6wtyuqnCiV+R1EFfEdIPzCyViHvIwoIQS7h+ziM4NA5BRp0rUkR20lNS5hWPEKJC9HsaTPnE0ALGwDY/Y1CrcaFAKCMzGKNRq0LYVTjjiKTAszvCIp94RRoBQOODZDqPjSfZdsXrZ7N4h3Gqw5xc4x0Mg5gQ4daS5wwJnOAEmxbjpQoEzHDdDdSQ29JA4w4KOcGJNkcE4rfHW20PtT4GT7DvC41GHmIlJw41lLnCG423FF9pboECBAqNCgUPiDEelBYWb5owCh8o55axhY/SgbHoUOMW+AzHefBGHq0MscIZjtBALjy1QoECB/KLAkDnD8aAvzNZ55Bepc9eabI4nd08e308ajG5HIueYuabGgx/icHSIQwLD8QCE43sZjkzrB1vMI/OUwl0KFJiYFBgUDAtAmL8DXwC/3I5NNr2PNE5xvOkQD3V2HFRnWADCQyVn4fwCBQoUGK8UOCBnOB6AcKLrCLM5kfE6ySZquwcan4nOLY4nHeKhWpcH5AzHAxBO1AVW6Nf4poAAciCQHN+9Gr+tPxQs6weGh3Lx+CVRoeUFCowuBQqgOLr0PZS7DxXT+oDhUC86lIYUzi1Q4EimQAEU82P0h4Jt0aGclB/d8dl586UtI9GOgjg1ElQcH/cYaKzHu34xW2ef736Ig+kQ+4nJ42NqFVpZoECBAgUKjCwFCmA4svQs3K1AgSOWAtmcYj4S4mCScAEM83HECm0qUKBAgZxT4IB+hjlvyQAPHA87zQDNPuBXA+mNDnhy4YcJT4Hs+TDedYgasPHgh3gg3WGBM5zwS67QwfFCgWxwHC/tnijtLIDhRBnJQj8mBAUmEiDms2Q3kO6wAIYTYgkVOjGRKDCRAHE8jUte6QzzeScZyqAWJvFQqFQ4ZygUGGgujUedYj7rELN1hwXOcCgzs3BOgQIFCkxICmSKywUwnJBDXOhUgQIFCgyVAgEgFsBwqBQrnFegQIECE5YCAsS80RmOR33hQHqdCTtbCh0bcwpkz7fxpkPUGs/n+OW84AzHIxCO+cooNKBAgXFIgXxe62MOhvlMnHE41wpNLlAg7ymQr2t+TMEwX4mS97Op0MACBcY5BfJx7Y+ZzjAfiTHY/MrW2Qx2fs5+T/bd00KWcI9OhnLWggn5oFDC07UfHUOir15jykv0Ky9Q0CEObxqO7WgOr+2FqwMKuMXZe2jx9lvABWodMgXGGx3zdrM+ZMqPzQVjwhmOR65wbIbn4E8NINDtaJmAGHCKWSB58LsVfu1HgYPSLz/5CAHieOIQhQX5YmEeEzDsN+kKXxw2BcIWs3Cym+sDaIxaIlTMp+gYC3GH3aW8udALwv3pm7RiOO/8BEMRb7wBYr4MeM7BcDxxhfkudmg5hi2OTNzAX+2pOVXOd7VaEfkyxw7cjmTSnPc/3AzsDG0+8Klj8Usf+ibbfBNCFbRZ9C2zJO3P12M8AWKACWPNIeYcDPN18oy/diXAEBZjvNFs6xO2/eXHXRfmHnO62fwLkZonATIlec3B5DPNQ4BzSBx3st5sy59s56tPWzyRsDlHn2HhRZdaMs7SCef38hlPgJgPcyGnozmeuMJ8GJyDtcFbjHvMWrfYhof/06Ymd3B6wjbvetoWXDPXQtUn8DliEukKx6FTIIT6wUKdZk2vgIU3W3VC9DXbvOclWzR9iYWrquAMw3m/2YwnQBxr/WFOwfDQp+Twr4hYF7t7Kzfi5XRrHKFK/innvRwhs2j4DxmrO0hKa6u3isQeq0psRXcIN8OIdqx/2MpOnk3/AEK9CsehUyDEXEnstfb1f7Ka2FabFNqJoj9k3aFSptJ+s0qJ9WPvXjOUjg0EiCHrQZ0C2CdQr2h9qC/qm1sXlayLkqHcekKdM6pgONacYEhWVQ1050qre+xn1rF7pUWLym3uqVebLboIxukoBlNgKO0QQCLdFe+JlO4qlM/+KeqbkK+8Bh1WxOveULpF4i3WuOlJKzvxfPpXQ28q6Re6uURf/VZeLGPpC4NjDHScooGOsKOlxGK5JDH+zIewdTAVdlvTlqeshg1V+sGQayOvaBknpv7OMz1nmp4Zf6hf0ssmmdhxehdx/QMI4zvNNj5sO5673SzWYUUzjrfp57zNrOR4zmddjMGYZGJGrnWIowqGAw1MTr9zOzec4Rb0PXVP2vQEg98Ztm1PNNu8STVmtaUWiWB5TUYRJyM5bdrwH8ZijNO/iklWNmm29TRss+Jkp0X1attstuMFswVHs4D9k5yhIgWI+Yzxw6fLCN0BOlrdSot0bGVmdDI/wvBSRVZRC8c9ZaoDlvE0ZTwgalOM0WyMbgl0oQ3P265nf2qTO19mG41Z/c5ms02LzI47xgF//pqHRmiMs26j7W3CHm4wk+jVOhsskuiwSDJmRYk2mxrfYnvuvxlx52UApc7vkmkqsGuy6ztuIY8PAVoiwl4WKbfqJSdZe3QK0zliRaEeK0W8i28FDBGBZAiAMcw6JBIFfFH2b0fOZzzcnEwQ0MJvEuKaOBLdltjwrJXH9zgw7CYapT08ySoXnsSPiJBF+e1e47qQHkr9pb4mmR8AYQjvg44Nbg1Ud6yxMmthE41ZcYINoBtABDDj/eZM+mYT9o/8XvHDJHtCSnCx+7ULLRautViyyMKJLitL7LfyLgDxkR8w+BsBzGaLACICjvF0+NaiE1x0prUkp1g3izSc6EHr027121axCezlcye7fNIS4iI5Clxh9gj3HXO/eQAKqFf2bV9lJbxHAZAkm05baIbZvJPZgCrgrcYXWjiDG3PfAD7reNXqHvpfK+vaaBWhRuZHnJVSbF0RPBCmzKV/xc7b6Ug7Rg0Mx1pfqIEMK11jAmPJvAts8tI3WFd4soXgppKMdEmiyYr3PWHtj3+PiV8HhwgXldIWjZdJ4AcP/VXJAqueeya6Tv4G+Bywx3C5YTE7LiDmfRB7gTD/Od9cjIF0yk6vnHGEoB3yI+LisxiTG5EmutEXxq07WWY1885CLXEM86Us7yUHdSmS0pE4KUKMAdulxXdb7OkfWdHeR5Eg4AJZJTFwvSNSbRULL8Y36wK+Yx7lwZFrDBkVMMx1Jw42bkmThWyGlZ96jVXMO9taIzPY1dEVIvpU2l7rwEev7Ymfc842xw0wWw52uzz8Tf2bbjVzT8LSWe5cPZKIOVIHNElvmADoZRktHINSwIWxQTeL7bKmbc8xSzqcL6f0gwm4wao5r+Ee06AnDtdZBqlBbz4GJ2Q6hYflJpTYbu3P3mpNGx606uReWIVOpwdtY02EZ5xkk2U8CU8H/FEDSJzOgyOXWDLiYJjLxg82VuL0Q1F0O+zklpxuJWd/0LqmvNY6Q5OcBTaCWFxJ9EbHhjvM9AIcLdnlxEpxj/l+wNfQXsTkyFSzJWdZongyuzyWZZyBEXqsZccz6EXX042O3uAOOCFpj1Lasnzv4qi2TxxTf7UBomT3Nke7KOqGJCfEIyUWL0GEPAowDE/RpBrVdo3Uzb0CACu5ROTYPrjdO61t7S9Ro+x3or+MapKWuiafaZPO/wv6hRqADVXO+mmXipFqzDDukytMGVEwzFWjh0rXcJhFL1VJGO4pOhnu/xibdtH7ra1koXWEpjDRi7HAtltVfIftfuJniJWPO5E5ROhVtivKUJ+Zy/MS6hxifzxB/wD8yfOORe+DOw3KfhlSyhGJbNuLEKCdYIlscO+rK8tlu/P1WS6iR1z0xqec4STqRGS2FfzuJs9ZZlY8CfAsxSg/PjwPNIfDWMVDUgPte87qmOPVeFQUw/3G42FrS1Zba3SeTT/vfWalS5hDNc6/UBtAvh25wJYRBcN8I6ADC3fgO4b7jIUAxMplNuOyv7L64uMAjiq3axZhOawh7Kru0W8zaR5hUrQ4Y4o3qGSCRvBdnvQU7lZdlB+hhYstsuAMXMsxFIXLkHI6rTTeYK2bnqP78pmT2CMfygJfmB69lL7Qj7DGFr0auuPmDYjIcc899eC03haaapG5cIX8HeBEPsetKw+jw3UX843+s+lx2/XHf8dPfK8VAfACfQF8fXSJzXz9R80mLefkKTANvY7Wko6OtGNCg2HmYMqPMC5diAGIU062uWdcZ03o2mJhABFQKUm0WFXPVmt+6hfkPJDf1X5e40PX5hcz3OHsEyxZvcQ641jNmczSebXt22RWvxUcbIFLkBJdh64ocIaZ7kUu/A4aWdtO62jYghVZFuUep1+2qkWIyKdAM+lnx8ehuOpwCF9CLMZNj/7AKrs2WHGs2YnGPeEKay+aZfPOeSeeFqeykdbSz4q0r+2RB4N+TCc2GGrnz7AWRqISbyQyz3IRKDNfc4U1RedaXJyUnAtiTcTlr7HGh+EQe1Y7DlHWtt7Dx6K6XTcf3HBcCFWg/UMvGp5pk+aTqAHLYEhaQqygAsSuzU/zN6IS4O57o38n9tAfCmSJEi4pA+DRvu5PVoaKIRKBggBHDJeayfPPgFy4nJCxxtMtXzaTrHak5nsyrO8xBnatsdYnbkHaWYdo3IJ12VvFG2ACJi+91GzxRcyVOYjFpanoq16qjb8ghEMZ8YHPndArIltBLutawim/cbcRIJ50tVUtPN9aEJ+9DyJ6tlg93gdPW/eTP4dT2I2fXnMvR5V3jtiZiwFDCplqyo4+G9MJei044TCGlGioyxq2YUghftmSiMuFY2AKiDaxnda87XmLxNq0jzjdoGhZPP80rkGiyPekF25jZMOTywyJOzqZw13bnrCSOJZjpIJkCMtxqMYqF1xokdPeCrjPpI/SMReNC+v4wAM3ct+OGBjmQsF5qN3Wzu5fit0lg0sq/5zsaziMMWEWWfFJb8cYezxWtRoca4tdOFtlYh96o0dQpN/HAtnCqpDLDUcqasOD7IiR7lC7lT4/iKGWyJuUT2UUi2flTCudNBeXiVIXQuZCydo3YBx6lvZ7sT8uC2keKskPmxCHeaE8BtxLbjICw32rLdy+ydMMF6UuLKvlUxeiU5vPE6o9jfkrr7WuGAQJP8I74j5r2/iI1cR3IfJ30eYoRsMKJOLlVnHme5gLi+lzjaOcdIuZrzDrRq98O0YbY0ZkRY92I0djUJJEoxguNla+0Kov+pA1FWNhtioHK8WhDjLB7LMdT/4SEHmUx+8HVuSeEujcRqNFh39Pr+uWu4z6VG5Vi0+yzgjhefRRhpQKlOjxHbIqt7o+RLggmoeT/fApcHhXuvjiGDx0BA5bILLpGSsnOikCdxUXeITliEz4Xbjccdp5nd2acQ2rD5IA6p6y7U/8wirxJojqO47uaLW1YzGedN57YXAB+OhM+lPM/j4iEHB4A3AYV40m1gybEqPZuMOgVd9LUjo1x9GluLrASCbGKIHrjQEaVn6KzXn9DdZZMgduABEzEXG6tinxTVb35A8JSFjJotnt9Uo8odfSPOwWDusGPn5aQ5gxjPITW3qutUSmowstAR7jLPBmRGV0oN31kAE3G4WXsbyP9EObgvK4uNRuOCXv30r4HWqSonDMYgBFS4SM1vNOhEySLGRWCKzx+aJx9WPvddj0gQ3cGlbb7oe+Z1N6NmI59n6S3XgadBTPtumXfAIG92yAsJbx5z/WgPSLwZoI5oMy9+iVr8doYc6wwHC0GjVSg5A9yNn39Ro3LMyR2VjVTrapZ76TBTDPeqLoFLEkliYarLxjs+0gjtO6X+W7Bnbf/LMwSxx2LyfuwR0WzSFa4hQWNIpxx+MQYtaFZXGHjELSJ8X6LYBs2ozuZ027A4thWfA+ak1RvHY4JCtyo8U3YGTq3A8Qanw9GFbPIQ65HBEZzjDQKuRbAg+3McvrgfBS63zV9j31Myvr3mLlYSzH9EPuY03Ro2zqaW9hjsPlaq5Lp5yKVc8mbv5CYN+Wjgb2DAsMswmZT59dQssB1lvmd77zqs7FifJBXHSFzTjjQ9aCV34MrlH6RnFVNc3PWcN9N7kwrUDUPJDIFJg0cjGp0s/K7Kc4Q5tl1fNOBQJl/ZRODCFP/nNbWfAYheR3GHN+h6N8BNb8TMMTNHW6Wwfc/K+/sw1TWV4Ao9XKsPOdlmi5A8PJs6hHiD6R6MwrFsbRWrHIbI6GtdXzgswY2ub8+PJBvFRbNIml0yZwoOWRbxNz/DjJF5ohb9Li/NiG20ztie8mQulaujCNrkmd4nWlAV0HWhPqbz77UqrtIw2IExIMD30Q5TIjEJljtuz1VoPLQQsxmuKslPSgIrnHwvUvWbOiVELbWRCtjhfTkQvQCybtYO/hCMMZUlwpCV8XA4bFRBSoDgqtVXheA/G21raJ37vQk+U4isIBnn+F04lDtWHRDq+zSP1O8yDtYFz9YLQYyu+xuLhCwFBWZAxMUZzvDYRUvG4M9ySbS+kEjAyKOvFcd8ZyyQMxMqksNHFx+tus9amfE4b+HBnPfeRMAncxqUqqFr3WIidcDjlmuznujT9DoY4/59DX0tDvnW9nTjgwPLzBA9JYrEl0K4rPLD7zA9ZVew5uCBhUUlxXabLRejbfY/YSLjcEubsMIANAYe+SH/2hDiKM9S6daDowX2CDg/nUeceRyxYrKJ+LWeKVUq7veJ7fvFJ9tFuoaBe9dHjuQ25NUXIDeq4lHo0iyEFgB45EdwgsBZoZOt7RbGNErKG4wQ1PWhVjWhTuckanTkIaa+cTlVEMILqyCVjl5aOaapf0bANJHSPf1oD3z7qzOELE40gY7l7SyoY7rXPDXVaWxNAnEuIXJGNgz9TXWvHp19N8ktEqJJXreufM0Ft7eGtq6PcfzpkjyR1OKDA83EFLcyH4YSnG16ILbdYlH7ZY1XEk9FSYksCky6rhIOqeJ6HDlkfAQtUcwRgxnJEc9rX9n+5EILnZwAWEF51ubfjH9SSizkJahm6seT3cobKxoPvMreN4CuimL7ZQ7WtsX3Sp7Y8uQ49FmNv0oz0I5pCaLm+hOEHGsG3Tiy50Ubkg44x0Z3QaPtYYTmRFxi9VwDc2PvYa3/5jrGkTUoSM0vbj7VD3+M+shpjjKKnakvhGdiIatxJ/P/2SD/qYY4DRzQl33eFNusNdW4f3tLG5ylNoiM8eSRQe4iNzdFpqwrm0TH4HtZJFVnveh23n/f9loY5VbrEUwRzUhBttz5P/Y9MvhXS1r0OnRI0R9GBSSAcTJphwueEe+pPI1+ugHzMQ8yqXYDNpgKnpoGc9tr8RMb9+MyGJM2l3JYtEnM/oHOllLI5KpI3QpgRWzTd9EW+lLf676YtYoTN5KVRS8rGcm0b/8G5ScMgte6xj7xabQhJchTDGEYnjZbRp3pk0QrpCfzjruxP1U0cOxORABZMNhy6hBMGk1vAoc/G7eEDWI+LDY3NiW7LSmsuWs5l/BEMa/WAzTLpAg967HO781PzOx9RlwqWRqJeSTefewT5C/3L5AFUlTIXCp55is7Ewt0XnOB2SwK041kCc5ybbed93nPUuTPB7qIfEsHmU8ssF6CnRa4TwvKNOsx4XRsZycKnd261LllOysnhRPzcDHWwMSbUlugBu8FzA+jwejp4WY4XjaDMNQaPeLHGF+wlDfwynZHH46A/Z1HoY+ylHEa9LDkxL0tZMAAzalAMg9I/S8swAMTlDy5shiQtNxyu2/2Fijjs3WanLw0mJpyTZuJmrs854h4u/V2q3hHO+9zxPbuk76gM44g84wsHQ62ScGORe3r/K+VgJEIn1tQUX2PQz306GD4ou6TtcboqI86yMbbO9D/w7gEgC1RAxzPHelRzcb8RHK+uGmTq57EXrk9pOs5Kjz/FJX1kssjBGQu3WsH0Fd0LEIlVZLg4HzoCKMyCLzixO6WeTKsKuXIFBdiEBj9OHQdLRZg8VcZKU4eQpAAY60BbnpIJoXLzstZBlGo3AKTm7LQ4I5ZsX8G2jSUH/rOBJ3vIORxhfZfse/E8ran3VAWFI4r0MJgDh9FOuNJvPJhOWC424/r5+hJ7+3hXrcFqeT5t+ZvtHQmo9wsHwwNPB64rwNwzDIRx9qVUvutha4RY16VSavQQfxEj9c9b9zK3Mt50sd/kg5k+EiuMGyFdnlXOsdPJRLmVTHHFJNWCS7TvIcyifw9y1tzd0UICY8ouEanJ3028DMWAHHp2R+AWd27YXSGy9DfEYMAH0OsnlVzoFV5py4tajWJFTHNVIPG1Y9wCA5UsYVv0SXKM6Hv8xoYPPOAdxiftyEG+HC6xacpHZsW/0c5ZsTD4Ov++TcwHhw+rrGF48rsFQu1Tm69Dp2FcM8SJJ73dxOCnnchNZYhVnX4/UeRqTrtblfVMOxKp4vYv/TKyk7mxoM49nl5YfXWp1+309o1WpFd+Hozv0Rqev6FPFL0N0c9ZlHc5aWmqVGFLa0R2p3S4UT+4kTVghJRrm4PAWTNrUR7z0dNb4qVaH47QcR+4ttaMu0ul5DTtdlIayuShvYUdRLaGMiJfoLwXSjovKtByn2y9VyvCXzoHmQTBvXL1rXsS/QB/GLL7RbN3d1vTqwxS23+c8BGTw6aBqX3zSUis9632MOcYoNj6vefU0zqSla3WKzoc79MGaO9zrR+u64XKHwx/R0epZntxXky2hjCWkcKo573pLTibuVzHN7NNFGCUqcMnYvfI3ZutJ6kC9kRBZhBXuxvoe88Mnt4W7XXKutZLluyVyFP6TM609hAg4cymLYvSMJ2Pe+cEaIKPClIWOFi02xdGlITQfKeACNr9el6rBbjOs31NqgQPdQ5uqSlOE4uIIcefa+ggF3++gfgmJZ1UEno1ECUY6q461yZf8mZujSebmaBrFDtTWifB95MYbb/ziUDsiriefjtFuj6ueBielndpV0y2abKVTZ1jzlheJ6CBZKrqasIovMTHr63YhkS7BAKlcgsqITFqkFLHSVEspwpRrUP+N/qGYWtpNMaPqmtnWxPrpKTvKJh/9BitZfCFgSOmDIxQQMUWQjWYGHFe57YUwiYr5tuCs9+KvjksN0UhKejHamVs0AwaaBel5o7T9Ar3Qfqzvz1rdgzfDEW5ET6hUbGTVgdNvLVlg0y/6ODHHpBkjciqtJ3SW+YHuPnKzzq2/0dbtHmJznWR2mI0KdXd3D7k7w2VDD7Ffg54+6srcDLHWiXoAn/LE2a7f2u77vm1TkruBPUKfkKnaI9Nsf8nxNv+Nf4U3g6yRCn3q69KQ7lCgIOsjNg7a3UM+wS14xSHLQVyJaslrh2KTF8kpklUsFmJUx0lxo0Pu/CAXSNcGXwUdGtkhUBk4ZMLoQBIDJeqIq2DYKIPJwZvIfJMoLwf/zlW2+df/YtO6VhMeymeOzlC1NWPUm3EuovHi6/hGSVp9Zp3AuDMSovzB20jznDtafh2H62YzZDDMByAcdfDLHtM+oOWtciFlEE6yeMh1uO/RbyFg7aRGccw5NvfAOcamnGI1l97gik8piWxcFkkAJx6Pj00InJTvErWkH5Sjrg4HgFh09RoB3Vc22cbDZ08TgY30pgFd5C2AWkRhHGN0BNJOSKF20hN2rLGG+79u0XrSi7GhKT+lKiA2Ruba1HOoX7L4TWxuMxhLuX6NTbsnCiAOiXr5AIRjNDf7PJbgMm9QCeEbt+gim7LsDdZECdJurJDFEVJlifOqf9EanvwpOh44SOI/3KLjlfNY4KDlALoWSQJQThCa516KUeXzWC2efBhLTxPcaQhTS2CA0EvuSLmliRQwfQ/H1SmJhivwTk0e6hyHG1ZR0pZQOwCyi0qIijmuXnQhQPg6VCBwhHKeh7Ptf7fsuxc+H4wCg4JhAQhhpKR+AVQi6AFRaQMk8kGcbuHTrrfw/Dc4a56z3sGFlZAcNLHl95Z45gfs7PXEinoxIgj0D7IkO9+70T5SVsMgy0o/n7nRfn6+3z/g/FPt7OsfOvrQEiRNCOaC13fJ+EbKtTBV7V78sXVv/I2LOY4hWcQYwHZcfmKzLrXic2QwoeC7omQQ6ZXJPZhRuR7nnEtsQ5hXh4NbB12Rh3PDIbRz3J4i66znHCRikjId62zNOe+20PTXkCppChwiVfbIh6fatHvX/s5s00Po6bY7t4jRVWUfIkkHsWIe4t3G7ekuW1cetT4Z7wHU0O/i0G8bHrC9L97lY47xWlB8vGKOQ7Un2LTz3wsQHgUIBjHHcP4HyE+YR93L+6YcFAzzvvWj3cBsvzfFZqbqqHh9G4BYAiCe9xHQNNI/AAAgAElEQVRnPOk2XG5QKEdxrakhXrTu8Ztxjn2IVhKypwwj3M/ZL2SMyeEydL5yKX8553M2TD+z0SZ7ru7vx+FAT8vl0vCQ7OZWDMtxw59sz4rvuVo8KuQksbkbUbip5FibdNb7mXML2IiJOUa/qcPFomeEg/blcA/Uv5H9fiJwh7kc8ZGl/pjfjegJF+5EDHPN8bbgsg9bM7HA8vsyCtarNGN1bKvtvv+/cXBeDXe4FyBMKerHvO2FBuQbBeRCE0EcVrz7rvv/x9U5LlHMMVy8slW3hmfZ3PPfh28k2aqVfCHn+s18o9jIt6cAhsOgqePu8PVygDj5BJtDUe4GjCs9EZIksJsXEfdR1rWDIt7fZZKv5LsmxOV8EsyG0fnCpcOmgBaffzEnlLa/Z5U1PvAtK+/ahkmuy82VboxdshzPOvsdOMqfDldPqCBF4F2gd54d4507LIDhMCdUXIlKlRYeC58tudSmL38DSWGnuRhm+YmVk2optP95a1EdFRIDhPBry8c6KsMkQ+Hyw6SA5kJYvo6J7dbx6A/JqP4iXgnUL5FoTILeduaVMq/b4osBQVW0I9ROZQfG1AfyMDub55cdEAzzzXiSj7uO9nX5EOqlurr421jk5Ldb9eLzXGF6+RhG4l1W3LPXuve8YO2qtJfYwO5OkfIcJknI8zl4ZDdPonBik/U890trp+B7GXMlgguN4sg7i6ZZ2VFnW7n0hGGim1IuNLIeu7o9eXjk5zodGqG0ivsdBSDsR5KDf4FeJ4H+MOzCoXCuPv3tZo37rHPf01YR3melKs1J/sBGLITlM4lyWFhOynaF6/Xmmjv4Awq/TjQK+AgYXGhUimHTg7Z39b02JdRoUUoPyDjnanhTza70bOYSYnI8qSStHgAPyMFMNCLluD/96FoAwkMYgcBFJWWd9bs1YW5Fx9uUyz5h7SXzcIfAwZldXAlEa3CZUIp2q3uGRbALkblgUDkEak+oU0MuSStASE3uXY/91CYT5lkUa3WFXbvQOWvuTL6AbNXFx9Pvqt4aLHw6ULabfCHQeOUO+4BhAQiHP51kNklGUXIXL7QZl3zQ1aJQLkGlai8Pt1kVdVS2Pfh9Au9fYjH4Osy5SRQ6/L4V7jB8Cmisnc6YfJjWvMq2P/Adm5Sss5I4umXcrzrQP9fbXJuBd4JVLrMkHgqKForHcM3SMcrx7MPv4fi9Qz/OcPx2ZQxanu2vx2ftis5fTHWYp19s00//EG4RU4kewFEbo2ExOqJJ3eus6akfUdh9O40mZC8rr6DszePB5iwlfj69xmAGDPLIviOpKCQ/1mTWpqBY48Pfthrq6xTJksy86UYX2F403ea89s9xoXkt95YLjZaor2Ec5K/03wzy6DH+OZ+4QzF5Q2H0CmA4SpPG1VFJkiWbGOZpJ15pjbhEyE1CVeoqEvXWs3+N7XnqblSM+JYVxOVRGoX8uq0DiLD0hPut8fk/WKx+LXNhn5sTPcyN1vAcm6ZM1ZSasBC5CUn04Z1v8qsfE7U1BTAcrZF1ca84ZSdJpHriu61s0dWUHVUyAOY5fJ90iA07XmSu1/OF4lHz0zqYSZ5sLnC0SHe4980/Gvbl4Vx8urLR2H6r2/Q0c6DThWlqTmhulB99jYVPeT8GE9QsLrpkfC/PfOIOhzKnBrQmD+XCwjkHp4BimEMqf0npRir0WAUW5u6mzda4/wVSzXe6bNkVk2fyO6n53XLI/yMbbNJF6/O/6XnUQr9JltfMwttgs8M7FRoLYTkuP/laNsb5TIdyl09xHOyPeUTX4TelTz7DocjVw3/k0O4w3naVA/XKp/BSzjzE4a7NtvNPt1nb7jVWUTvHZp/xHoJXlrMAapySvPcINIa55Qyywe5AfRqv3+cevPuPo3e4R0e4b6VtfOS71tO2z6pnUuf4vLchSCxyumbVOc5tKrHRHdF8ynd4sMSveQmGEwUIgynmE4nKgkiOOpUVjZH3MCrwoxKbJj/sQd/J338Rje509Xef6GCoXuYWEAcaxyCDtXTFWxl/dIhJwjlDU3lVuPRwA12Vi/EfrWcUwPAwKTvRgDAggwNEdIOuIp0zmMD1JcsAQSVZ9WelSqSkKZfrIIMjAQxF3FwBYuZ4Zo5lenPEtdq7ysjYppT9Sg2nRLx+Csh6PFGO8QCIeaUznKhA6BYgOsQk2Wx82qVSqngy0VV43llUxoMjzURZlpBbRYNSqdjGoldOClA8O/Hrbm44Vyz9VZgHYzEewTPTYnI+6AuzwVAZmt1kIRefjmCn9b5X+qLv90Gnknyv3XUi7axB34bzns35hbJYz2Q2azqch43itel5cIgG+MH6O5YAOYrkOuxbK+umS9Qu/1neg+mSFuOzOddgPWat2/S6zKNMOwPpDh1nmA9AONCI5VpMHKgNE/k7N88ncgcP0rfxYb8/SAdy/NOhrMVDOTfH3Tjo40KxnljezItszjDd8mAHyhAntTulOb+CmHnQQQ5+zOYMB7toMEaxd9Jnine4FLkZhSg62A0Ga4AekL5H32f4Sw8mVqb0bX2VdQd9YoEzPBh53Io72AlD+i2fdYd5pTMcEjVTJw1/WA7laUfmuR6LBuYd+wKdRuNgwDSS9Msc+UFmwXhlUUaSXCN2r0FoPWLPGbsb5Q0YHpArFG0CXYQsbegdwvJT5kiyAJ0yPNBRJInkIOQpBDfhd/mJP4AHmzqDcYLZhoTM80W/JIpX6fodraUz4hWUFFY6qcAGkZSlnB9wE043J0nxrGF7Deu+uqeL9/YNUZtcsqCUPKP26FHBkW4fv8tGpSJe6pfrm85z84UC8vyYzALLbHoVOEWRy4+pCk4Fa1TMur6Pi7ZuvWUZpAaQ5ILx0fn5xB32zhxVEs+D40BAmK0od4uRL0NMZhX+DlFUW64qIVeLBMsc6dDlniCY9AOUB53L5yZIoZ3CL4Gb+yjMcDgWsjWvvGprVq+z7dup8MfntevWWVtrqx1zzDFWVV1hNTU1duyxS23ZsmVWWVlJbWgM5BojAZVD0RRiHSYNHGAJwHglUouyubXD1qxba2vXrrXGxkbraO+yVatX2yTaonbpmDt3rh23fJktP3aJt+Lznds/FRusZAlEd3hgPMyGHSGXBSCH4oOxZSzjrLcQ4YQJfGaBjkgI1zByuYcooauJFGwe2et2vJBrzHWGBwJCR8CsHcbtSC7DC356yV3U2P4jSV/qzGYRxVF9tCvdmQhVu8kua3Ioj6xXYzEhsjmd7DZo8uoc8V/ygGxr6bQ/3P+A3X//g+5dO7/j9zJ28wTXRACpOBuSxzwPMMuXL7drr77S3vi6y2zmrFoWSgCKhw+IQTLTbdv32b333W93/OpOB4Q6NL6eE/UcYzxVKjOcAk21U8eb3vA6u/TSi+2ySy6y6koyjwv8gw0gYC/dmQMfRzJ3GMwfl2IuSdRMaCdJi8nU3rDVrIKY+6mn8h3JSEhSnHBMiD+yvUAGomw+cIfZFuUxBcODAqEomAWG2qEIaWeHqrP9z/3KmtfdStH2RusJT7MZS8610hPJ+FFGVAdlFC0uZ2YySQdy3kAjMsG/OxgYOsdexEThwbpXNtgtP/yx3XbbryzmREmvh5AYGdxDoBBGBpXYGRxJxwIKlHAY1u/K1ceOde21V9vH/vovbd6cqc7+4TnFIYIizwycjrfv3GM3/efNdusv70g5I/vaH4F0q/kQtCfNlaTAMGiv3xC1mOP21rdca9df/x44xsVpQIT3POgsOFLB0IeRwnRE4ALj5F7s2Gax9X+0TS896HIvdkVqrGbZ1aSouxrazqBMQXmajgUwPOiUGvjHwcBQC6mPWkf6QmNg7BVb+9N/sJk9L1s5YKhaIz3hSuuMTrEZJ73ObNkVTPY5vKbg2E8lMY5MnUe6NVlgGyxz8Rr9nj1wF/Lq24OBnxoacFoOz+jktp277TOf/rw9+dSzgEoIIAuAyHNb/TqXolci5feZwsKUT6c/W4DoDvS8H7j+vfbxv/6Y1VSjxoD1lK5X4OJ0kSnuzJ0KIDkuFY5TYNzS2m3/9q2b7Pu3/MTdyoNj/zYp47OOwKsgeO/93v2cOgKdV8LOPP00+9rX/wmwnu7BOnh+ZqMyL039Pf6AMXNGZ1JCtBTXr3lOTe0MhsFJCuK6KVzvEtAaEtjL99ie5++2SNceqvZ1UNI0BktSY3uKl9ix77qRc45hnc04ZDE537jDvOYMBwKkMLkAGR3bcNtXbVr7SquM72ZQVaEuYTGK6LSEp1ti6lk2/dTLSa56AufCJZJpWqx8vwD4IwwMNcmVXlTHt/7jv+3//du3AED0PdAhMRQO+iCKcd07AEf3ABZbhIU1Z9Z0+/Z/fcuWH3d0+nc9iuJvHhClA2bTU2kE3X7Nulftzz/617Zt+27fJrUN8O17b/8EPcOheuroD4YeDDL7FuXhMdJoybjyV3/5Efu/f/0X7t4RNWIIx/gCxKGAoWc4fIigzleoKLpBmAzbvYqqBPfy/hhMx06yLXWLF2fgiqw5VGu7i5ba0nd+AeIdx9qamgZDPy4iZv8NLJPEBTDMoMZgnGG2mOzIq2pioSbrWHO31T/zPZsc30jB9naLqugSxFc6pA5SIHVTnKnmqJOt+OQrKfJ+CuMzhUGjyI50G8GiDtoyQfwUD8wZetCQblBg88nPfN7WrX2ZDQTFuANHP2k9B6bonVTkgaM3pAu4uAwwzASnPr9DSw+MHgzdwgD5vvEvX0On+EZ3P6eq47zM9qptt91+t93wmc9xRdTC0SInArt7pbwFXJ1qjvTzgvHLAulMjtWf4vuvvgrMnD6RkwSAyzAAffNr/2TLjlmcBkR3f2hzIBF6fAFiQKSDv4dVrTEMEMbgBJtfsNjK31vDhhVWRhnTUsAxnOxwQBhnbnQTU99UtNDKlr3DJp32VsYSMZnktL3HwCCc3YJ8AEO1KdAd5jVnGICWBkHicjxO5Tk04GHtXvHtZnsetvYX7rH2unUMWgug2AIo9pArNWY9DKH0Gi1UFlOm6eiyS0iRRGaQsEp6VgGc4hT5UwtpgoNhsLifXPGc47pkkfVCkgc7yIo+EJBwoKedX7/KSh9jEfjPmRM5YKJcUgGAS2KW3in+4k4LwNCJvsIdOETd6+tf+0e77torHblDKcRyYjPX337Hb+wGRHZVhhuIS3Wnh2iTaw8Ll1cAjqlW9/Ih4ib7tMuDvThHZ0nWok7pCtXPmupyu/k/brKzz5JBQGjt0f9AYKjnTQRAVFddYSqDwZCBpGu3xdY9bPvX3mOlnZutMtSMSNwpJQJlK4oBwQrrKZpi8fKZVnvWdRguL+baWYjISF5wi5k08duPKHXgowCGGbQZlDPMpmMauLRYMaTItUY72aYnbfszd1h55ytWHaqnVjGAyECrOFM8Um7tcIqdpTNs5hlXUYz7AgZuIdciPiNWywgZMD7O9YLDLTiOfDe+HJgT9IRzXJAggv9/dcfv7FOf/pwD/zTYoIONpBzzZDkWBkRc1u12vu8ACNvs9FOOs6XHLLSqqjLHGaQPgO/p59bYimdXQ+dyi0Fjw9UipIJYjvXLOJxMrGsT9s2vf9Wuu+bN7kfHJdK2226/h7Z9li/wAnCQxosfUH6wucly7QFQm2CEUppRCmuddvKxdtqpxzmQTR+MX3NTu7366g57csVKi+NqFZelU0kRXJIMQJlnOnDmlW6nwJUnf+2rX8HIgnqFxwlOh0Lf3oePj78EQC5JCGMif1yL74M2m/HMeNz2Pfsbi7RutVJSzRVB6yhuNKJRjIw67dFaKvYtw3Hj9ejkYSwiWJPJw2lwhNoUD3et5AMgjg/O8ADzK3PXCSe0q+Fe04XJf929tmflH9FvMJi8ook2Fg+LnCXRZRVwibOsaOZpNukEDCwz0CeSbZoSZAwseeQkiqXBUA/uq1g+QFPG9OtBF6tb8Ga3//p39jc3ADaOKxLYZBxaHFRlCwsEk9Klddj5F5xkV11+sV18waksmG6uwI1GGwxg6Rk6D6hx/DvjiSJ78JFn7Oe3/s5WPPOyBx58PuMug7d/VmBUEccosL3rztvt2GVL3L3WvvyqXX4FGZ6pIx13INrbPl3n6wt7YD7t9GPt3e+80i4471TaiyJfnGImQPM3sMsdSmlxqT3w4Aq7+3cP2UMPP8u3FSzqEgfWjhNO08KL4g4Bkz32L1/7Z3vbtZe7voayQb0v5fqDftbv+fbRzRf66ErUsjacgaTpFWuCkeja86yr3FiSbPablEqWwu31hKusnXUyY9n5Zlo3VH206DyIU5nuf4qR7u1ultriYHQogGGKOoNzhpmwNzBJna7Dic3SJcIptmxmcG+39p0rbFJim3MDkLuHxK9An9iJL+LURWdb5EQGt/JYVuhslkKVB8NxJDYfDAwFI/r/8aees/e+9wOu/9IR9lELSGwUEKIPQiVuV775dPvoR95qs2dSpxcOLM11oWd1kT8sDmekkF4QqicpZKQjxO/dgOLzL2y0r33zFlvzchPPQh2RWhS9Yi8bDC4uR82bY3feeadbdFdeeaVt37kLzkLuOd6S6QHXi+ph9FUnHjPJPvnx99gZZzBWWDnVZnck5ezruUgve7PQtfmlzOUJAR8c4c6djfY/373d7rhnBe2u4TmoSBLeF9XfyP/rQBuw+MlPf2BnnnGKc9Q+mKjsmjAIYGbeP9d/a4x0BNuL5ksIVZIZyYXbXrbYc7dZ46YVVhLbb2WhTjcP3ObDeZ2AXXNkjhXNONUmn0kW7mo5tIv7R8UklzXmU1pd4rj+1FM0p1IbVD+QTLUn+22sAXGccIYDgWHvdyJiAKjeL0qJU7GCJbeZAYZ7V/zKom1brDjWYMXiJABO6arkvtEVmWrNxcfYjONeZ5FjLsQ/cS7XAYgMeD+rc/bo5cnnwcBw2/Y6u/Ka64jUaHPWWsf5psE+pRdEJF4wp8q++Pk/tzNOmQu3BWegBeG4ZGVdRg9ILZdotAyAxEUmfT162R6KnmO8CkAzATcYsyl245e+Y3fe9QTiOBFBrihWr2guMNTx/g9cz8JM2A9/8GOnY5QurxdYaBuLMxJqtWvedI59+QsfRmSjxjR3d3pN1REGfMtLKZeg9qUXYpf1UIjdEsoeDVDD1To9SITzGdsnntlm//CPN9vW7ZyDX1yCezigTvXJcaLMj+rqSvv1HbfagrkzxzUY+mmqcYYOLqGwuME91rP6Adu1+ndW04VrGkBY5Iwnom6Rq+CoOt+JqoVWewoqg6POgX5LoCXFzNwcijgOXp4CGi+vYi2Aoaf1Yf47OFd46Df27gHiFNEnqhYtVufk2odsxwu3IQJsYeAbrAhQFDA430SArxODSrJyXmrgL2TgAUVxD0q8mY5gEUcjHZKMBcEU691xD72lh3dFNvhl78yBocQxK7yuuu5dtnLlOgc0Mdf+1ATmXQtEwHfJRcvtHz//Yaut0YRuZ02wryvpLOqDcPEsi5TK6CRfTYU8avfXS+eKzrwI0Yp11Vm8px5uq8U9K56ssb//0s12+z1YJeNVSOfiSsVncaXWE23RQgpimQPOUe2Tri4JdxYJN9r17zjPPv2J93A+inw6G08AysW1Fq1gjABaY/H2bVOqXbQj3llv3dSlRtuFjlEboPSnpdbQHLUbv/zf9sdH1njuVSI9xPK0SXGc3PWE5Uvt7l//TMw1v/q29i5+15V+R665xF7dtm+KooV0BI7ocjcrimqMYBDi6NbrHrf9T94OJu6w0mQDUhNqJOaB7hOD22sLT7H2sgVWu/RNVnwCukEq9mktOJE4ZZDq1+kR+GKsOcOgC5EvfOELXxyB/hzSLUYDCF0DtNjFYahmMU7YIQYyVDvbqpcstdJ42PY0SHxjykQjuGv0WAnAWIqrTqiLOrZbX7aOPXusHMuilbFMpWBmaXoA0pJI/Z0CQ+FN6s9D6vtwTu4HhsHNpAtKtUd+hPp4039+x+6483cO+N11aSCUuNtFb5rtLVeeYV/98sesshQda1gGKcTfhDitaiuqmo99aT7X1fK9lOSKQYWuDhSp+udeigcvQd2netCsNxZXGL2jDB3nn/9a27Vrv61bjy6XhSSu0QGOmpICn4B+gTO4xOMEHEyUtlx1+Vl246ffYyXhVqfmMJ5dUjGP5NAL+Bs3KdpoWDf1vW8Lohvir2sj3I3aVFRUYj3d6EGd3hPwj8SsmOZf+rqLbffuOtuwYSvzQUYVCcOebh4UQ7Zn7z6eG0ZcxsKsmZBqrHvL9cDrmQMdblw1E3WIw+V/NpkwqoIQHHsEZsCSe1AdrbV9D//Q2lb+yiq7NlpFci+eF8x7roozhh2AYEt4ttUsucCqL/qgReZdzO3mwRDUMl6K92d0U3NsoGYM+7ugC8O+0fBukHPXmlEDwn50kNZM3BA7Y4xJYThrN2+wfU/fySb5mFXG6jQNmOTiC1AWJ4qtC9GpkwkwZfHZVnQK/omlxzEJ+sdeph+VY5ecbDBMs6npBUHLWNxbd+3BCHIpExrLrmMX/ZFkRTvxEzcK6Qe//IU/s+IoPmQsHH/IPWaSFVUv5Vo4QumIgDkflieOMLiXOLDMI+WeEdthnS1bWYRwZrSjB0fcd7z3U7bq5Y4UFxZck319oNUCNsMttvyYcvv5j74B7O5niUs0rnZAaFGiilxhdQG2Xv0Px505w4q4PCUV2G9dTasBe6QEAFFCY4I7x/AmuPFL37Nf370CrlHqkTKAWK5b3mFH95Hv6iMP3W9zZ0xLuwK5JwbiQSbdU03JNXeYSQG8Q0E3xiKCmsAAwfY1eLH/werWPGwV8f30uhWRuJ05AR2YG5KMWm0aZZrPtSmn4mkxBb2gLMTaaIoQlbOHKfNhI/j3EckZ5g4INVIs/LDnSJLiElH8WgmFuhceZ5U1tdZS32qd3V7XEUYsKwIkShGvShGrOpuIfV6/0ipYGKFaiYnighDJstmCARbDCM6RfrfqB4YBOKUwSiGH4hD++avfsJfWrHMZX0LSiblDmwOLnf5deO7R9s2vfAKAqIexoGKfIELWXOK5SyoBnKhUBQIIicKIUXDQTvXgohP0t8BPCy5YLcSBA7qhiKJZuizO5hOGG5Ml/9jlJ9jtv7ofMISDpAWeC1SDM9kBxorGiqMJI77dfNNnbGat9FIqmES9mCi6u1K1CZUGRpOQ24TUNrUnaJPeZfH2/pGOUxIXS/+jRT3W06l+6hrpQz1YXnj+hbYG5/Nt2/a5DVHcoROF2TREa7Wymcw4b3jdRWJZRUy+0ZF6Dz6mvh3LN8c8S1eKntWS2y25/j7b9fD3LbbjCavBJ7eETSECfeRuJgNie2S6xSuPsdrTrrOyM97JXgAQOkMiukFURE4/mKv5fSRyhrkFw4yp6RTkctJNKZLlVpDcZ/FV97Jr3mvV3a9aWWyPE8cUkxEoktvRJ8ZrT7UZl/0tQLqYxTJ2iR/6A2Fv/1TbI5hP20hucP5Fr7cecmlF2AzShzhkgGrujLDd8YuvWE1FO2AI5+QAQrBWik6uxkonsyhsOi9dK2NEIwbWZvSIWBphFcIKMMYg4XR26O889yhuTcggkNxv3c0vsY4aWFBxdLPT7HP/8GP79V1P00alfCr2RhDODI7AhUZc61VXEDf8xffyrD1gD89ChCuqOoFT9Sy1SUAoYGYM0VcmaFu8x1eZC2PoiRQhJhfB2bgQTHE5atMe62x4BXoA0g48dRf0mOggm9sr7Oq3fc521UmnCKgLFAFDJ25Kz8q3jz18Hxb2DO7wIJyh7j0W3KGzAiu1Vud6q3vgqwzDM4jD2tyRfmKku0MHIX/AdlQMrQBf7dJLrOgYxOFSOG6CE2SZH+vEJmPNIeZUZ3iwBe1m6CgdyoWnieBEPrkFYBkLYRQIz5hvVYuXWaSj0/Y1tfG9FPIonQEN+SgWo1dra++2siknsCYXszB8tMUoNfOAtx2Mbp6HoeXg0Vf++V9s9br19EV99RKd3rURlERa7N/+5QZbsrAEThgXC8dFCUZT9IE20VKf2MK6G6wbS3xPx27AZi8LrZlFLlBsxeewne9arLuzBYqiW40G3Kf0ieLooGUMsHI1gZO2dNlr7Kc/u43f5JIBZ+fO0gblIVztjyDSFoUa7V+/+WmbVIGrD+4zSfSMRUWAYNFsOifOXODdisFmp3W0bMNIQvwy1tAkYn9IrlXowWLdbRbvaLLuDvSgEYATPaG/ptGpCLz4rB7LcoynZHHUlixZbvf89n7oJ6DGZSTFAUpnqEw9LU2N6BkvorniljRM7p/0m/8wFv9qY/Dj592COqxn2wprX/dLm5rcjM8gln4ZRwg86GRjaAnPskkAYOW57yXb3fmuaH1CCRbcmhB9U/0ai67omWPMIQ6seBkrYozac1PinDhEHYhZ4vJC4ZmIB7iMvHYRLjZrrP7ZOwjte8ZqQnW442DB5KwooltPVwfgiA4qrSPMXfW9gwFhrxTjF0RTc4f94tbbEVeL3YJ2foUc0oIJCM4/d7Gdceps+iUdqj/cKVzuNWWkQ2sG6OIydgBqJPQMo39K4nqh3yVy+/nazeIJWzEO2j1d0Cm+16JliNdh6VehcVGZ9bQL4MSNdNmcGVV2yYUn2v0PbnH458HZ+yoG7RBnc9H5x9vcmYjFgGkMestoYyUS14Xm4mzrLNa+HTEch3oZfNQvXu7ddbXHgb44yDBgH+sAKNsEevB8AD825RQQ+6c6kZjzzz5jvl302iV2/2PcWz6I3Et3DcsCDZjcdvud9rnP/y1hexL1OQYRH0X7seAO2YUcl+y5ROhHOzoxdLWh945MO9Gmnnxdb7CBOHvnJdB7pFZJiqb6Ptjk+pw2YT8cIWDYd/z8oMtYQLZedk1Lkndv2iSbctkss1cfsv0r77Omlp0suJB1FM23aQsR0xzXmNvJcTAgHGhG3vqrO7wbi2wHMs2yLGSAkH9lEaLlZz/1IUABjhDdkrg5uQs5H714FK0AACAASURBVDt3kFjBOSyj60txegJBHQHDEKTe9yn+ifaIw82hT00ghnU2YZmfJKsjdML/0McQi2ICITl0n2d/fGg9YJN6XPZbuNuuuOJCuEM4SoEWD01oA8JCTYwY7exB/N7E/STqAoQS+zlcN1Pj4px9HSjGXBifAz/nbeL7ms33SORXf0P4pn76hg/Zg499Bj4X/0PnssPdZIzh3cdO/9o+eP3bdbO8ObQV6NC/jmkFvEsXnWB1LyywemkO8JqI4R4z84wrfBhqeDFfyhIvJ3quEblyO6XzhnYDNeSIAMP0eKc4u/Rn51IhaEQ0cvqlJfw/w2rnXWI9OzchcnVa7YLlcDroVdAvJdM6uN6sLgMRdaS+C7gozfS0UZgvPQD4cEHHhaTqUzxw/4OeGxSbRN/C9Ffhb4ouOffMY+yoWZP4bj8rQCIoHFMaCNVi6BBgSdqM6CmVDSLOUMuhGN8kzs2KAioCnNr3P2/l5eW4syA+A26OulxchHh76ilLWXgSmwVi/AIQKZO8c8KmnWF+0zlJ4qEVZqcjiUN4rGMHxlGSiXZJjEZM5r4O9DJA1X3OOAQMGle12+FZ1u/BqSof4dynInGbN7vGXnv60fboii1E0yiZB9y1LMvQQn24j0zbH3o/YAiae4DVvT1l/JNSd02Nj6/D049ymc0c9t+925goKvMUG3vxPJt/5ZesdcsaOPOQlS1k/roEJfIZlGFE6hPaxcXZrevFxbFBSNkUxlJveESA4YFmnQOb1KyQASFElEUoiY6KrBxFi5ay+DxQylig8C0Vpx/rwwNh31aoDw1NrfbU08/wA6wQIKeJpRA6xaEWYcw49/TLnPgZGExGtB/QxQlkRbjBxOSu5MHMia/QOIEoOmnSJDv5lOX21DM7ebQ4EwEprUW0Ewd38knHW3VVsUXRa3pex+Wdge5wgXCyRQBWL6hlgR+/ZC/sofdPTt5wwxgazjtzqT29YhVYjzEJg4JAUHgXBf1E2yb0ypOrABxtFl4ud49xfRygAaMuLqc2M216olmCCKGwEpCUH2uVy+AC8RAgpQzvGJM4t69iYugUOlLOHJstIE+om0Qs7NUDaqdXxmWtACmT5byrVF8K2/KLwjdbHBU/ZXAmo9WdNPiK23Cw7R/qn+2HTmKn1sRTpOdyPoWpBeJCFeFswhgxJpd12cVnL+N66dNSRx+u8AA90CLjpaf6V6oV+i61ALUIg98FVjHEWTUjGxxE22VLF3EuMc/qD20OI8bpmgTXLGXx9noBcf90OW8lX4hzP3FowYuF3Ue+66WOp5DAIQMw1dfMV1Z31VbR5sIzl9nkUiJWUm5DEjuduK15wUkCRB/WSFwzk8KHgHKzjPHp3az8+ByqquMAIzHg1wPNQzdLlFswLAuxwiFxmIcU8gzyR+7m74CNHuTLMfM4oV1HNBhmj4vbyd1CVviYXA1SkRNyJ3GLP9fHwMOTks6cuCOJR5N9Lf5yckVxooZYLgEH70WA4fL51VaOXkyhV4d0BADiLnJmGF5yWK62HjjoHriQHpygxVULnHxYmzYU/wqKMgVifVVVBXpY2svv2mAEKPpboXbVlRhOUgtWQB6m1J7yV0o/GRhvXBswcCgJhHs2bVBb1CavPxuYXkPps2hTQUmJpfMIQ8RH0tHSqQFSuw3PfnntBoeprgIgKpOhpq0aLUDUZu429MzDzVW4WpQjji6K/FHKrjGZv0OhfP6ckzMxeSwR/4DkDrij1ERxEz91yNfMpZTS4k1xZP4n7bzBBDz8xTdQmwZbNN6oIJFUwEPTAMLm1i677dZfu4JOar/STgWJU8XZROC6jps/2cpwujWbzW+ksert5kDNSH/nJD9o5MFXOikyiccryGG40+68+48OzK696jIs1HOwvDZzby/KyilalucQ3FRwDxcdIYMIh3SVKiLluBXHlaW4FYEPpHUiPkAYVe1RYZGuFSeIwUtxz489uYFqeY+5/l7+pvPsnNOO4gw93/shpvuXPU7B5xRXqfPUN/VL0SplhKkdv2CSPbGeBBQ8VTq3zOO737/FyitK7eprrrLayRX0Q9pKjYfaCxwLdDgCrjhTpTHqInOqoZlz2NWC0ebeyxZy1ujN3z7EGocfcgaG45A2rskDw93A3452Hx1HRYvEDTaRxPSWH/7IbrnlR9bcjLVVHIFbvL2cgpxbZEBZOKuMGGyC9an9Ie1/XywcrC/i3nRX+RCW22/uecL+7kv/6zgyZcf+7b1/sve960K74RPv46QmDCeBvtC7sTgKChzTRpkDUUnP8cYUn41I3GXK2MLTk0lxf9X2zX+9xX70y8esO1bmuvyb3z5s/3jj9faWK84FKAktRP+YPtIdTdEk9dnteQIKgSHA7Aww0EZ5MBfP5L5sHCHVFA2u51zdoQk6/+NXvk79mP+y91Fl70Pvvx53GzmSo/tE5M8EogP1Mmff0y83sukNIfPJg415zlqZVw/KCVXykisMJsqAk8WDoMvdp8VC4teg/KG/rO/nXI2oSypAk2674x674JLX2b/fdDMLlFhTTfuAy81ojDhEJU6Yj59fVAV+nJisZR3o/PzfwXfZ7+KAHRfswCBqW3a2k43m2/w9GeCptJ4ECVNDk+2HP/ujbd3R6c5RSU6fQDS4t8BJ9yBvIu/OOTjVhmChikMTF+UcorleHKZP9eXP9dbjqG3l+T/6+QOkn68ii3U1Vt8q9/ffk4Vm8w5FFckrwLfZc+8H6J8b86BvtM997iYhcJPNn1np1AnZXKEjK9l3ROuWtna76T++bRcyBrffeY/jLl2J1bE+MudrAOR5NH/HmjyDPT8nYDhYI8bu92Cx9G3BQIrpsWljaoU5cSxkO3fvtXe+50MUTfq8S2/v7K2wR9LXeaOFDAy9LVXmHXGG1cX4GnYrQkNZjiUAysUFZ2reg1eIz5mv4JywKsmRUDWK2HrrL/8AANXwUtgaOQKd/hDdKgkuHnz4CXdvcWYuH2L2/fRccbb0xb/36hVlnNB3AkBXdoBrs++h3x98iByJcoqGS5ROV3kWlcFabbr1l/daGGWe2quMRK5/AlZlH8p4Bf3S731e4ppxCaoq0T2gRUqk99T04+DdbKA1GZC0+TQ2tdinbvicvYsx2b6jzo2RXjoyReTRmjvZm/RoPedIue8RDobqfn8SaKd3erIUV5StqM7+fLiTJc1MBLu3M4hIA8XD3WKUSAxQ0MRbfvgLe/OV19rjK6hxLNeUlN7LAQunC+LSFlYu0GJUrHUEx+gSxM2uxn0ODBMxFr0DG7hEuEb3SoFH+rPScAkcegQQcFwA6c716+we9IRJFdRCQa/nBbRTFMfCBUTzcF0yQQEhHJmDlwMlZVKhSFcz7j+BNTZwTZGvov5uaiKkTlEniq/VNel76H7+dfSSeY5rdPVaBJ5KTKHaJvgF3vvbR2znq+u8w3cP4YA8M7gu8z0UC77PeI5rXzdO3UTS4BrkiooJ1B0Xq8PPEWekgbZ+43F8rhuLJ5983i6/+q3UeSb/Id1JaUoBda5P6esE+M4XMFXp73DnTOZ1/eZh5nz1mOzmcPZ52Z9Hoi0T4R79kWAi9Gq89cGJo6wzre3U+lNCVC2gBnzbPvrRT9mXvvzP7m+f2fnAHczkDMUZLVk0H7tinPA4QvBcMk/SuwN0DnTci8QFKbDxAIS4q4pofBfByVkLumdfs/36tt9ZQ2OP5wRTllY9S6BRWRazM09dwt+EPWRwXPpNnFgCkJSDzMvrN/KO7jEl0ntQ4fEAyvoNW+D28FNMgaEDVowawUv3Pv3ko0kw4R3JRQFvcJJBoMT27uu0X//qXuvajzoAP8cozttSEbg0Xlkv1XrRSwAoLjCqgun0ubuVMD+euGThfEA3kDP70jqTvh4kBY6YbwB66RM/+hd/4/wRHYcopSZAHxjGdEe3yebiSAFjLh41UZ5RAMMxHEnxFYICvWT5E0Y4oymrRqC4bfcee/f1f2a/u/9+v7DEW2Sv0YALFCeYenkdmOeedG+nR4NbsiYcnkmvlSTJQoJkC0lAIHiptkjw0nchZfbpbiRJcr29sGqH3fvQGlxZiMKRAUYrOuV0LJC65s1nAiK7EVMB3Iz76G+F6onLjaNUe+FFODdiZRFcHWcnvZwTkQHI519Yw2l0gKiQpLsGIISrDV5GerUw+RKvftMZDtADnZ70qHJxSRJWee99L9pLK3dYspl2kP7f1fvIao8+uz7r3uqnwv1inFfPdd0qMpW0zk42A2dl6XsEvGC/792pCPaM2e/u+yOqjA9S12WP+yzwFBedJNwGb8k0yA7Vop/9rMLn0aNAAQxHj7ZDvnPAbciFx0EjC+ilNa+4qnEvKW2/eLs+LAXgCQflU/eTsBO3EtUL6WNJ5T7iSDZu3OKANYJo2UU2b4urlgjp/Z1uzevXHAeVeum7KAARUtaZzlbbuG6z3fWHF217PWUSKB4eAGEc0HKlO8ki87a3nAcQkxPQJQ71XGVcHKe7J9wkzxcQKvV/OvN2ijry13PfA6c6xxmdHXfpr3V/w9mpbGlJpNHees35iLHKfu1B1t2GDaE7VmQ7G4vtN/e9ZGtX0k/aHlI0DKAeFiD26SNqAj7rFVKcc4wSATtI8SXrNffasWO3A+nMw8V481xl1tG747BTbHzA4TpQZrNY9fLLTqWxxmX59vcJROfgnjnjEPv0ovDhYBQogOHBqDPKvwXik3zuonIuFkfIa9W6jY4jlKVYJS0DLsX5GbK29CqKKjqi0aZWttjff+atdsIx+L0JINzhDSnKzZeQS0q4lIWesM5dLM6GbfzMfTN1hmmgEPAgOgsISYG1DW7tlfW77Td/fMVaQjN5LuGKtEE6uyipsaIkTbjiTaeRaUbZXKh/QnU16R9Vw0RGEK+flBhZYX98+GkHeOqk+inOTtZ6lxRW9wQQH3hoBRZqAJfvpPNzYKWXM/yodk2DzZ1dam98/akuI7ZLIMt9YoBYjISkTaSuv+uBtbZx/T7b8uwq0h5KNSDDkddlZgKiqRIc3LHra9M2yoIIDKEbIW1JuFdl/snEQ9H2+KPL7W8/eZ2juTYgxVOL1sHh9LtO34FxhbF797s/SDq1TXzWoEEvx03DHcIWuprFhWNACoyV90kBDAccjtx8KZBL65NSYtmaNS/bu9/zfreYnJUYmNEhAEloQcGRFJOktMh22GXnzbFf/fRLiI4Uel+kOiQBGOoa/0rgZL12Yx0Qh/8cBpGmF59CJERc7qpH7GRBIwq7l/6OoW9DnI7t2Grrn1ppO/eG7abvPEa1tGnUz61xgBUAmZ5VHNptH37fZQAV1yuGmBhfVz5Uldh4KV5ZUSRdsQp78NGV/HZgt1aJyg8/tso6esoANwAGsJK4nIjrBS14SaQNJevtw9eTmNR2Acg8z9ENJ3RyEXaT0LWDNGI3fe8xq9tfYuuJM45tB/xJABvpoY0kfEj3l79D6m/9Nmt64UkyQXdTpqAcWu0FEFEHOCTsXR4R+nb6a2batdD6Vz/5R7v4vNn0fwc9asC30ocYBrPGW/cVL95m73r39baa6CBZ/QMuUbeOyQWpcOQVBXKS3DVY8HnV87xojAdDRY1oSa95ZYO9RxxhIwlUU1ygNGpiLKT3k3VYQDi9Zr99+e/eav/nvWdadZnSubfYrt37sTRvgXsiNb7WMYfeS3BEnkLBp+VLZlEbt4M8jW3WuXeXFQMyyM6sd0RDiZFtDZRX3Wj168jruLvF9rfV2Ndvec42NtdaZ2QKoq6ATJyPgEr5AffbX7z/TLvk3JkOEFwiBXFwTiMo7kdpuDC+JCrtxXX4B/7iUa4lcwp6R4GBY6BSIqTuq+s64OTOPusEm1ELV0jlPsdBZdzP5VVE/1hdVYSoGrUVz20FVFTSwbdNtwsBOm09IXvllc12+nFzCdFBF7hnEwXBfDJb+TuKM6bug9n2Ddby6ior7gZsyUrURn7Le56qsxd3lpIaf7J661qoVzTcYG+8eK6dcnyFVZTss0svPN4WHzXNXnr+WWvvIlUW7kZ+nkuH6WR93qV/7LDf33svBbIutNraKa6n/r8CH+Jn6cD/OlrmmHkugOHAY5GjbwWGcAwMvDjBj/7V39i27WRvTnEkKUxzbQkDZEW2z5Yjqv3zF99lZ59U47ijIkpqhqVTi1baHXc/h2aL0pwgTbriHJxad9s+O/2U460y0u6yHxcBWl0Ne61tF+Lhli3WtnWLte7cba31ndYVn2Sv7orYv93yjL3cMMmLx3BtIYXGqR2k0IoiIp5wdAklRq9FtKQcJ5xREnB1TtPBC8CU50uc6no3ffdhW7+R2iiJVIGpdMf8H4IFAaiPV26yi85dBOgDXi4CRS/uy/10jnIuqvLb8Se8xh55fKXVN3BfCcvK0MLqieO6kohUWWt7h72yao0ds3CulUUpTtW0n/5ut45tm6xz60br3snGsb+OAur0B1chpcPfFZ9vP/79etvTPcVxif7Qc/GoDO21v/zQ2TZ9CvrC5H6nt1y4cKadftrJtnL1GrhAOE1GJAjiU8+c2xDfdnV22QsvvGRvvvyNZNYupg+ZI5t6TOGtPwVyDIYZw9J/p/JDqTb2il36OxADAv1V8N6/N9qp2QeDTqFL6dWw9P410HUT4juZh/Xqd6jvsh773HLipW747Bds1aqXnaFEurRAn+Yudc7TzeisYvaf//IuuDzidpNKPou+C/ExTNr7ZYun2dxZiMrkAJQvXhDp0Y1D9PqmWvvxfQBeaJZ1hwFLALgEpKro6bYqRO9yACSM43Jz5Fi79cke++Itr9iqpumcT6RJyp/ROS4jI8t4MHPSXvu7T10BIAiMJbr67MrOXSflxiLbqcTibTub7N4/rCBSRBlU5B/Zjxh8By34LU5ltt/9/mmcy0nd7xybBYK9ztG6f0KiMglqtRF84TPX2NTqOtqRKmrFPJOOVUYakm3ZyoaZ9vnvrbHbnuqxhuQSaFVpJT1x+h1zfS+VU7aMLxiG2iiG9P3frrf1zZOpkEimF+atUv6rDWFoOnd2uS1bUutAWsYb0V5tOJax+M6/vd9eczR5I9HhuvM13+moYrN9FFPUVmMQu+HTNzo2Mz3zB5kf/Sk10b7x66A/EnjvigP2Vtx95it9YoBTwRf+c+ac85imFaeNu++RwRnqtL5Q3Dtv+85gL4b170L2PA8Uoe771D8SHfx52WdnN20ifE71sZ+y3Ou5nLoL7uH7P/gFrx+xfuC+WCABZSRuRfH1Kwnvs+MWheymb3zAaivhQOQHCEjF4orGIARNxgW4ox4qm614Zi3fqW60DAE6VKWklBrGdYjfe2w+eRrj0cnWgTjdFZmKY8w0299da39a3Wz/8fMX7eHVLQDHPDilqYCTuC0Nnf7DWEEd3tLQTrvhY5eS+286YLAXLgkglO5TSxy9mnwFBcaxODWLk9Pthz9/3J5d1QF/R9W1DB2cH91e+rgMPHB3MpqUFbXaaSct5XlYgmmhF1d1f8U7C8AEujGbMqnKpkwhscKTLwKAop24V0XkAMW0PUYKti4MMmvWb7Vnn99gZeWVVjN5LpwjUTSI/h2UQ222Gbaze6rdcs9au/elLrdhxPFbVMYdcdjSSxaH99sH33OunXwsHDLuQ3GFIfJSf6QjLS7usgsvOMueefYlq6+XYYXIGCWNcAtFDIA4dbPNmzdadXWNnXISNXWcscVToZdbSH1Or8OJvkbUP41uCh5c9z2uiF6u5sxAR7/1FDAculMmhvnP7l6p+/h3r3ryTF7vA0LdMZ84zu1mwSHUDQ43wbK5m0wg7P3NZclwh/9OPluF4yAUAPi279xnr7/iarLPiOPRUPX6EqJxo579Pjt+Sat96+v/x6ZUKL5Y7svTrbR8rhUVw7l1Uhek8wUuC1tdy0x7x/u+bvva5mO0UHp3+bVxT7i6IgC0lNrRxRR1Oma+OBw5ODM+LPy1m3ZTNKjScW8SD2WZdZxaajJqbshyXRreaJ//5OV21WXzcXOhSFSKI+ydHz73oLizrsRM27Brjr3zA1/DjDLfhcxl++6ljUO9vJLTiZaFttovb/msLZq53Rlpeo/euSYgigM6XYlpdvcfdto/ffMu60DMjaGXzIzOUW5COVUXo2ZAKwiAt9sS+i83mjC06UYXun5rPfxslROVY644kvel1HhEqdI3s2a7/eyWG2xGNfpHECxSepIVlcy0boxQnRTMKqJmjqzI+1pq7OOf+Y6t3ggd6b+LtkmvHUkC5FMnjdm9d93uqu2lj/S6Cb7pu44yCDDx/gwkpzQNevvem/Va4576XtjkMIkjwKngcxZ1Ao6wD7YdhIKAoVaEAuj9WapS5kpEpiyCvhFqDDudE5mkrA4+K5pAZSO91VP6Et8Av6AP5MWfFh37TYKDtHSi/cQk0Fp513s+bE8oxM7R1g+4RCu5cjjReHHI/uPrb7UplVSng7jRstlWNu1UfGswDrix2GUdG3/Cwm5m2c+wn96+xr7xbXSHoaNctIjC1XRoYctKq6iQ0rB89OQWoicSXwwAOEsxgOoAiykhY43GUu4rUeZDCRzh333yDXb5ZQvQO+7AtQcjD+f6eRO0Xe3neRgT2pOL7JNfetAefJKU/RhRxJ1mH26uSCUQcAPcT5yw6rRccs4U+8aNF1h5aCONECeoe/eCoTZe9UkA3p2Ya3f9fqN95V//YF3J2YqJcS5FTh+rq+iS3IHoDDT1taMFhq6vbAbUDeTuviqeS9oqEHT1YNhAwlvtho+eZm+7ahk0oFIgHHX5wvdy11m8aFfPTuum3EF3+y6Y0rjVN1fZn3/yp/bq1ij6V9V5Vr/9uEo4Uz7Hc04/1X7yk//x6lU1sN866AUE14GJfPQDw97OZoOhF219EKTTJzM3JY14+gb6Zd4dlkFoXMqUaSnBBp/EcBccBwLJyN/f+Pdf9IyqMA1RRVEE8W3WufLX1vrCLy2x8fcW2v2EhRvw20qwSxfxOzoqU4Fv+acph1tKpJDI5yIwWdgS9px4o3s6jodL1EhNQHeJn3TpFh4Bf7jBdTSAFqyKe+9/1G7+3vdEJfel/A2d8QOayUgxvXqXfflv30ImFbmqUAy94gwrm/UGaL6Q81U1Tvfbaz2NL7BQqW+Mg/HSZcvs1U17MMTUswRLAUBtYoEoImONoEdOzqnknxKFHWAKOJQswY+ZGyYnptfbjJrd9qm/usAuv3Qud0RXqULlSvbAXVytEen24D6VZTFEIfpEdzU1Qzba927FVQZRWVymm59pYUWLXb32c8T9xOGjStS+qNVt22iLpoft6HmywOLgzMRPot8UN5DgleR5er5PDAG3t3imTZ9ebWtWr7L2Ton3PrWWe6ZUMyk/TtHR9V9p/dkI9LeeLDHdZ8rx81Vcb2l4L9mvp9snPnI29N0GB9jpVBNFk1UgTGBIbRFKbUYqFzly9HRss7LiTlt23FL706OPWlsHCSXwsVQvfTvUljBjs8OOW36iLVo0z60J7YMubVlqnbhxdYdfN6kPE/MNAggLIhjoAlezNB00B8EXjbRmsCtLK/DDQ8IMKUl4xHy0xBazOlzGdj5qtukBa1tzl7W++ic8BuqsaAb1rgWGzIfgEEb5MQno7H8JxXo8Z6iPenCIkCfbcJdtfvwnNim+nUlA6Ba6HBIcwTPiA6Z6w+icSqfMo+D4AiubNId63dMpQXgUjVQmEeW90+LSImSiSXdC/RD3vRaec4NgcTADssWmdGsn6B8aZCUB1Qah/p970Ztty46daRBwYAAAKVV/SWiL/c3/OdHeftVJThwtrzraojOugsYsQsfxsCHZZizBD1hR/AXEPl90vTNRa3tbj7KPf+4HtnoDkcGJ6S6MzgGefN20E/cRSQKxnPGAhZKztDY5byBotmMXRe0zH38jhoKwA4ciSQ1ASHBoubpky+6VsPaGEnvplbB9+Vt/tFeb5lCmcmbG+eLseq91u2LWEUgoZYT3HT15h/3txy60ExbHrWoq1+lhTKFgTwku1U4vHV6PzbG1GxL21X/9na3ZgJUZg4yPmkF/ytwLHKL7c2KpO8lQFVWCBsRqLPcnHhO1b3z5XTatejvqinoWFDHe0DMWPdkqjrqEi+bzUiExLdeduPCwCJtegTMtsl/c9aL96/+sss4E60LZdaC7T27hnzVn1nR77MHfegowHj6HYwB+AY360yfo88R4l6SizTQ1gZwIzPxz9bbZ+JQsxM0XgRaf5Q7WAAC2odZo2G7Nda9gP9xN3P0epAn0y7hPlWrucp9O5S0PzbGFZ7/HQkdf7cZNTJo/gvfMuehlmjRdtVDxmLJ4M4OPH1k5VrQi3BgUMlrMjcoBsQQ6lkQPupOdL1vPLkQBt+vLEhi1aPkkq6qdZdFqFkAtYlwVepEpEufwLyP3nKsr4rKeqF6r2NaJvvP1n9SOU2YJ3EFOwp07qPwG7QSS2hi0WMKIZtFIs51ywmR725XLcQUk20zx8QDhhdALeroB1c64xdq3UBq0ey00JfpDdYGxtkZZxDMqY3bTV66wr/z7ffbgExuZR3O4t3z8mHqQvFdM8JPCfwaEhTeI0MXRvRhq6u0dlx9j73/X+XBE+5wVOSpHaFfsyfdLTQkr1i7GH+091rJ5j+1rn2W/uHuvbW2aCjiRAJa5E+jwerPAcAtoEIjJiSB1fYbI1I2ou6lxqv3yrvU28yo4sLo6q5rPeyXRLhLho0odJhDRYiJztsTm5DZbvrDSvv+tK+0HP3vMbv3NWtvdRN5FuLiE4379ZuM2hOBIbQyB9T0C11GMzvLic2bY5zEU1VZuot8ymsihHWYBt5pk11PWtq3JKuZdzXeLeFFwCS4xNP0CBCaKV3Wvsrczdg8/scOefqmeFaUSCbjUaNvThsgzd+0iWzi5EK+56s2uJWMVdRGQYazePRCqBjaSZhyvgCSbLfPfWgC91r1mu7cSRLTP2hvrrL1+HZm5CwAAIABJREFUF5u+DHkaCdQ9jIkSbUSIhlJyDreRa0PTOLPvq4xDohVmw4FqcGje+fmbrUuEM0xX3nFnR5LoPl693bY89XOblNiLc6782LyFUA6vTizRZHSxqQIzz+dL6BEH2QVYxqJYKtEb9QB+PZQonDT9GAuVTbXSqhlWPO0o1jQ7aik7alzXi4PU5Ay4Sb1LzNG7dnR+Y/IOtd6E+pA/R18w9KIQo8T/51/wehKi7qVriAegghdPqXsbarDJFdvtu//+YVsyGy6dRVQxFx1V2Ul0S75vTJyel61l54PkKHwWSzOLU+4c/BJwnup/N/59HcmFds8Dm+yWHz9qO/YIlKoYvRRNdX5KSvCipup+4GpT2mnXXXs6QHySTS3bbqVwRBHCztxESx8eODXxkMOte9tea9rbzb1n2n3Pdti//aaOaTjfR3JoA03teQOmxOKeA4Fh1DlYdwEjm+3/XjXNLjyh2Iox2kyqLbbSebPZSyV1SGROga3miER8OEDpC7sBp7rGaXb73S/Zbb95zhpbVe2uzInGXi0gS7A/pEeNOmt5q81FNH/vO8+yKy5bbBWhjXyPczZXxZwu0YOZOOyexAyLFb3GqmZdyDRdxjmMDfHT1vUSQPlDLumwV+vm2oc+9l0c2Odw9ykODHVoMYrmc+EOH3noDzCqbIJi2qWb8Gek3jNAO/VN/r9lcnvS3wmoBEbi9LQetJkGG6p+R+yt20z+kB2kk9yDZLHV2ho3WYSEIlESaGAiQ0oilpzEGyXaiOUOlWIeRDe3wiCeo6g+FBE9xPi344zfVjTLjjr9OrOjr2NjnpXiDA8FDFVOMrHTGl/8g3VsX2GxhvVMEu2WlJzEp60ENlTuFGJFtRiki3G7s2ugJHsBlyYk6k6U8vpbXKP+lrggfZDb1SOlVjl5DuI2Yl8tk7t0MqL2AoACDoawKkPpbiFxkbwrPEr30pJPobqepxolemZQZEi6NlFEhhst9F4A7QtKuZpQAdg4oyKH2ifgW/H0i/bOd1/vOGoNYnDI+l4W3mx/8Y6Z9oF3LncuHZHSRRY96i85ZQ4v9CTxdda48ddYhTexZeDGISUyh9M9pXVOkA96SUSMI8bJwvqHB1fbIyu22vMr662FzTdYdpJQjl4ctmMW1VJbeZGdc8bR7r5O7IADjUhkcVyXb6UzdmhSI0Ukd+y39joSP8Qj1pSYbc/tnWtf+u9HrDG8AGG6GhDVuHtdqDNgcMilJABH1+7UxHZAAKCpeJHcc3gIz6a2W6Iej8Ft9oWPnGen1u6wqgjiKHHZFdPxl5wFp6zBZw520xHVTPGAiHaJiJIECyLOBtBD3ZQ/rXgZQ9VGe3njPnsFUVp7rCvsxJMqEVROOXGKnX/aXHv9pa8BhPcTUcOcl1tPir7qfgBWcruRYSQBbbtDC616wTUA4lLOkMi803q2/Bf1ntez5KfZ936+0m7+SR0b0wJ1N+PwoPHTH99iZ58uVYi6H8zTrFNH62Mmh5zZMgfWjqxgD+MMsTROmfPZ08K3V5uEpErpc7UEcXFn+GRTkAQjbk9+oEw6hYGix0O+tbY9m4mS3GddRD6J7VHYpfY3uY3JjYuZw98pf1nenWeKmDE/0TUY0B8MAl+4Es+CMs98oR/sQfpMVMxnXM6zSSdcxhxBMsLFyjNdByZmH87Q6Qxdok/FmaYUlEQ42P4tyOp0hIZ37NliXS2+ExKppYYWumunk4UuikUtgVe/221ZAGF2b7dG3WLQzqhpJadKnB7EOaZenap6Fp3kOMjKKQusdNI8K5l0FLwuEx7R25nTpW90MZ4aJd7lz+W+124vnZd/D7o71txk5uRRm3yRqZB99rP/YLfdfic0UD88GDqzAcBTHVlrd3z3cptbi7sGi6Oo4lgLzb2eq3GVia23hk33wa2v9kCZAX7pPqe5C5EZ2pMXMYZRowcraDfiokRXb2mFQ9T4ME6hMCIwvFwxIWcCwZB0My6czhsTnONwoFoWgjS3WCuZnUNt7NioPzrwSVy9t8a+cMtq24lI3kkqfs0MWafVLyVdkO+hB2uKSiE9BJZeD3rSFUnvptlBixhnp9/jUOH4UmqTzC7ZZV963/G2fHobPBjSC23uZvXUzEUlM1kbKO0CJF3iVy1IAZ0WqTYcJ7HgMgSf6fSI8hF01mZxh/JdRDWBDrbU9vgNRrHGSjYxAH0z6aw+SEfbHT7BJi+8hMYu4WdSpG39X6J+1tL/Ytu2f5pd+f47gdXjea6DGF4pEAE53nLN1faNf7rRy1h5BoZqp6Q/t8GozQ6QtDnKiCGcgONzehD+FgpCS5cfs5niY61kAgI3ehBT2+q3WCfp44oYxyJFQIneGPuKpRJyxjB5L3C95q42R/3pZk7ARDGOjKGrWOmMXopFTzESxRVWORX7RTU4UQlDBYNl0xfSHj4jqVh4MveXRCDsCEZv4Pc+YJjQ7up0WnRcyC43G9dxOqnKZwTdu05LBu8C7Rt3WQK0727ba62N261l36t0uJHOtntFJqytEgtI5JGc7w+BpyYtt4JDDPLRBR13nXYdZsGA9l1EIui7yTNmWXHlVOphY6ypnQc2iJtUh1McpHSRcEJ8ycsbaIInBpxZ+vmDUSW4cJjv/cCQxdfc0mknnXKG5wpTYKgxcokP2EHPWB6z//f5421azQ76DdBHp1l41rlMrm5ovJrNCtUFnHqfGsiDtFPAEsLNAC2Le27gbhNwOtq4QojCLi0Wk1y7r4bLid+an9rEuhkw9GHd21BYt+L2w/yPCDqSc+zZ/XPsn2950up6ZrnID8fx0jd/LaY3uKzy8pCdccZpZKZ5kjGvdm1x1fvYABRBcslFZ9vTKtTeqqx/1DiRMc5Ne3FQipKpt9ll++zT7zvLTp+63aoIA0wA2DHaWlRTasXzmPgVbIY0VXWWI85NSDNZd4DCTpTCjSge5ZNEZr8yPMeTymzNGLj+6wru0+va0UvgXlHW3dJtNALYWHwq+vLjYA7hGHc8yg/ouzj2tcy2T3zxRXt6Nfp1JbtwBkYPhqKPaP38M4/bpCpZv/8/e98BGFd1pvtrZtSrm2w1F4o7hOJGCB1DaAHbpNNCsgvpyS7pPQFCyb59SUhCylJD9qXQ04hNMSS4gjHYlm3cZEm23NS7NDPv+/5zzsyd0UgWWM14DoxndMtp957v/P03xw/zOAfsNN9PtzbYcixWmL6oggM9M8nErCYXz4LJv1S+d2AnKD5sTq110l5bBRYX6Q/g662EEQbImJEq1wPoqW2nfZ5K6VHOjQjoqtggsQROgs+MQNeFeTIK20w1fSK1lz6qTLLyQCTlFEs6uUgSSlkAQOCDEkocDKINGaKL31n6HtF3XblKzi/6kUICCgU9iCmkUCOFnaJsxA9qIkgZCKg2ZWtYFT0d4ONptF5YJOkAxOJp4pvQjNca4Afh51jYuoH+xcLFhxTkoSpoeuqkvvaATggXcCpZWLptYfc1wlDKu/DyAWDT0F8KVLkI+dL5QEHo5KCHoZrtaAWTgj7Rjqwdmu2UjDGgIEsxHxOtVhsLonAirsYE6E7AQZMK4TDxUW02PTMsKHgHP9i/SV3hWS1d+qyOSdHGU7jgSZVNKRqF3kNUARoujDkLdiKKSuUL2Dy6IR+EooSCZj4RPicdX7S4PMU84l5yQ91gmeH5+EFNsTCSjJ8vkGVd6XesZiWq1SOY8HWCmgdUoIapR9vdYIfb99RKKvbFNFgHQL8Lb41xsnF/ltz5yGp4cRQjuAEMnkGtq60eX3o86wAWTYbslu9+5UuyfhP8mPEU+W4RrDgJDNFFd7ey8QG5+EuL5DvfuRsjLMMzGs23QjfLAGR9LWD1q9oCcueDK+Q7H50pJ02AmU/wEN4ZRJVuaIcZyy7JKIIxdWGBtfYyYcyYoN4fwPvM2IZoMcOy0hwn56a7Gxs1j9m54HEuklBv4fk9z43vaMCPjUHHUC/Nhw5KSq1uEVgvBARs6dBwHockU+s3HYKeCWy7rkC7MPkT5dllz4FChCJF35GhA0TzGhrK2KcmK9jhSN3xo7I+/NTj+MCXXZoOIN5vtbSA6GlvwGbUth+ETrNSeOlYz5TrFcAmlLoFzSFDas/wzfadJx/JdZgJ7oEKQ/wGQUQrFAZjU2rPny7p2fmSnjtWCqhfGIU1nQPKH0AoEHeIH0QPlbG034SjANezuowC4IJoM2BFM5xXcjR4CzDbsfOtk56gxIChVkDWQclWPhiDnbBw01vdTslJJLXmUxaVOzg6FxiDb0xg7gx0Ht8TuHgRGQ4TlUMyug4A2VADFnuvNB+Eszw01qHWfTDXAMRRKwSf0zCWgclMxncCuwZRHJPpx8RxJ0kBu5XhZwj5FslBJ8KtoJ5aN0lwTwDSNIKc0WqnglzOLhgvqZRFjibFgB0EgClQ5gjYmhSYe1CSpQ9qEIsDJDbh5GQrV6/Wdo33B3cqnMNDI7saAGDNnDITHiWQtWTj9UgleDMAKWSHeBzcTFRmQhBBHcbWLjoAPnJXIkvKXI7r+TjNURdXT98RFgqlCbB2Okix4O3FM8D1oMy7KrAIDjQqzR0mEEIe1xwokn/uLpCf/P4V2dtRCNc+ysuwCfHdAdAZhQvlQHvlG5+fI2ec3A4bwP1oEnXiGhP9xix+Klb8cO076+RR8vXPny633bNeWmDPx53dh/erG++CHzt+F2RyNR1h+d5vN8vnPniqnFkWkDxQiD5srmkdQWndfUgy2zCPE6HZ5bgQlccHloTKPh2/sr0A6cg4wXRprmMMmM+EbJordq6iBxL8wuUYiSFImDcFyi8WFRmxHbA/oTbYfh43TlKX7UIT9AqCgFIBDzPBfqCdFavWypXQKpN78lJrCVoc8EPGbg9Ah41F4G5piBmjxRVwfE2g+lrhxhlAZHB9bwCMqRgraGysfyNOoDSfXKOh/MyYdEfR+TTjJEVMQoZ+4N2wJunAPAQzRoOIKZU8iMXSMzFHXKM00SPxAlBUAkYfCSeGv0nt4ZvmepZNNgpWzDYuIXGg2GVnyeWNdpu8HqbugfoO+9teql89wNB7MuL2ogfZhF1iWiHGr6wMOs3KLemp7AcFsBiEsiCQg6QwTNS4E2B9gGjF2EnSnVC1A2YjlEWCvKY8sgMk9v59FXhBOQM0tAULRdIaPBknOoXtcNIBEJQYUFZhwAGX8xYCOfoZbARL0pQqTVUgk8Fqk8zugKwsd8IMySiEBvDkq3DVGFw7tBQixW6kDHvIorg4CAjcgcFWhBHlREl97q4MukCBtM69Qon+VsDqo/B8jKLCXh89bp9lL3Vo/QDCtt0wcThE+Q5FGmBdAHrNvjHy9Ip98ut/lEu9H54uUHrR24XUZIjPSzcvgCc8Nm740Cly+QWlGF61KuGUO9JFFdswA0xk+qrl8vOLZc/BFPn1716HjLNUWWqCK2WBGqgWFGJ1V0Bue3C13LhwjFy54ATJRpRtyhXTsGDbka+FsuzMSRMAoPS6iTbkZXHZOp/HQBVS9mzXFZr7cIx8lgFwVaqIcuvH0yjn4pml/5A7bv/OQHWlX/WoaAQrQ3y10rL+z9K2Zz04XSjlEOcxEAK1B0WGyvXwnU1tLjcHDo8Azo2Y8wqZKbdRIxaBEgOUWoibJblJ5S4ZWBjHsS6zR48HizsB9rIwj6I1SR70ALAuEciXVUkKTyIlVqxM0Ph2E0twysqTzQ4XNzx0g+95b+sh4XGLVfETRZjFsfiFEcFWz4LiAoweJ/hxXrR4Ko+xJePbhomgssRYfRPZOXhSkXg5sjC7/BTjAxI9HZNcRBa6CTsswk517tsmbfW7wWrX4EGBxcILT3I8FTH5AnhIqTpXEM7zpbYLjBNH5tEYUYDNZC4MHAkiBFNwDwJ57t8sGRlZkjr1Itw3DqDe935gBjgw/25BBGsmfKdSIwWAz6gmLBHQwhj48DoOQdwwGv3KpsCYYzRAGO2FpSr62S1HESqY2oemLBIrR+kJkFSk4URjm3TWQmEBTCYQtfgKpbp9vPwctn8rt4A1DUxShQypRVJIIfSfkb7CEHmkyz5534WZ8okPTMJzwzMMYxFgHLoR2HZNI24QFI+0qhLn4++fKAcgFnnyOWphmXcFtoWkBlAo8wtjAYV9E+WXzx6QDfDmuBn2kMWpNZID21iGKGura5HMfCgBR2dhnjlg936b99dLsbvW3863q8fNr1l4do1wjIir2F6HFAVc6K542GDalZI9b2pqkfIt22X29OPtVYbFj663t9O7vu8xFOEhCe14XurW/6/kd++WLMr5AGGkbE30HSOvNVG5MSACIokdfdqAfjWdy6DxC1YhtLmQ6wXyEMADnFh+4fGSSgVoDgBvbCnuITvMW8lNcoWSMwMhxehE5C5V+Yn/lQLEMwN2OHxxr4sbUWS9WCLMzbtZJ7zdEGdu/tx7buJM8r1370Es7iVEgiMh1TkA13kfyFby8dTaURlAFooKDmNnZYambVktmtEw4vo8CLLxSZvwLlAkdP1rkdFM7gN5hTSCUoE2u7Vmp7S0QmOFIJ26K5NyRFt+1VoCIKERTcXiVG13kI76aAh/d3alS03FJimbdi46EL8JuOkenO9NmxHxmK8aqFulmqPbCWk9ADbmBrIQdcU9CC1++hjdqggaXiqPs+helLfUU/dglBI1z4kvktbHb+/bx6lpRnADvLxBgB01xmt3B+T//mGl7O4YJ03+yQAlhsZ3i59aQSpLkCfEv08+eNlx8rmPz1BTIR+4gSAoOrLGUeqMDXAhcIFxozUfGjhn4334yqfPRzCKrfKnv2yHfGkCcIXUA/duUiOQPIYQagvs1vNb9smO7Svlix86UebCdS9DBfJ4f9pJZdMsKzpZypqz2HkIu83dA1Dmgn7+6+rhSCLzCADhcS7yfYgm3gEZF1lCPlu7GXmpFb7z7NfmzVsVDAcKqA87AvYRa6Zq2xsI43YQUngG3iDnQUihrJZ0LjYixIakLK8bMtQwTeLIk3FjCmRCeTtBskcVgeqDOIqiqKIpGDeUmJTr8XlRLEDvJ3WHwyaGKVE2FqIJ9x6o1xMJGRY8B3XNgwhOz9v5PexYBugCjKonIDgEZRveBxd/7eH6SuGlG6gBQjNgu3x0CObhmyOG9OZvaBqVg4fcCK5/SkWS1R47C5pk9hfaxZPxrWp+fGC0GQRQdtFoE/ksmup2qNFmKow2dd9KwzVdDHsVhBlEpowuOgH38SVNuBdovwam2AVvK9u0CfJNwiFeJpOQ3My9xi6kVRsExOs2Vst5JZkwYYIXEDSMvjwoslL5mPCiqIaUr6sp7tk4oHRMdI++Ryh6nOHC9ygHvKAa86zZNTxgLoIgtKDrdwfl+w++KYd8MJ3B3Dkg5DMjsFNb6NOADrvhQjdXLj+nCHMPah6UGmogQ6ZFn7d9cbziAgdUVJf5wZ5lgWX+4o3Hy9TJmXL7PQhkgYg0zKXCeeKqMoLxdAhTCmVXV4Z8/4E35Xs3lMmcyYyOg1mGMTgpNodz7GfUHct2xn5x8bPEvus4YG+OzG8CpYqOnwtaNwVS1Jg4iqQaWmGD2YCxFMK2E0Flw9CyQ27mYx22XvJWZv78CBBbLosXXWJ7kqAvsV0+8r9UnJUD/cQUEBY0Uqd8mhsyRCGMXBQxecuWgvHT4Bc/AVrcQkkfOxlrsAQbNdaPUuv8EOU4fvzmu8q6+Bsgaig9vLcO7xyLbUcQ63lDe0Y+W7wgvN49vDiIijynGHZX7zIlctzcGL/BePHN3cLvwUYDb1v9/q1+y3zp1QwBYMDiXbW2JpVHkqQvBitWDOUL2OgMGAqPRhgogaJGWiAUhjsPQ7w31x+QxpYGKSg7TbKmvRv1oV4b0aXfHXu7F1ow2oD8Jq6YCDFWkIuD1LIx8OqGbQek/aKZkIHBlrOiVshpCADRB+NislQaZ09lsQYYY7qEdjxYE5kyJ1JWNkKB15T4KY35m3/k50rn/nZsRTnyzIqdiHqdD1/jQkMN6phoGE1DWMh2oeQZnVMvn7nxHLn07AyA2S7QbzSghVZcmzNg4e2v2fyI89Ft1YhZIAqBSiwAOeLl55UBW86Se+57WepaRoHdBrXBEGMw9CaqYlvEvEHsAS31shWVMn0SwoshmnQK+u4mwFEh3rb785uUUvyG751fHRWfBdFSx2A3mvoWZGVF4IzuPLCOhfL6mxsxC+Nwlu9ztLjNgP3bvHlzf7o0gNdg6YNqy51+pqQ2l8uhnWtBicNmr2CcZFHxmA+ZXg7EWYj/KCEAH50hdC2S8sOGo+IlvoNuZ+uja/EvWh+XDuepEQmG/Z0QQ2VQHgmSnFQkwMSYAoASzJkO0h3fheYlhWhXcnT94oVEYE/aJEb1Tv1t8ciuq95TrUDmXiCuIe5y5pvGxllSWZsif3qxQj5wzhQp6Ngpbdv2ImQXxlWI6C3p9G8FIFJDqi+hecvcgo3nLKIL2fyKSmHMOKLne46LUAPVvQRGj8ZekiUt4DzV9MG92HbXpsw2HfLYsrG1cutXL5ZZk2Eo7tsHCgg3AKrYJnfiGE2tNseHgcegcmV8o/P0WjJ9NJsc7e4yEE17yXmFiMF4vnzn7qWya1+3Ot2nUCpM+aMWQyfChBOG+3mSQfFkFqkTN9d2nnoZcHT+DIvrjPUjx20r8fNLdtjIo/CDEwONdmjfAeTagmlNcJQ0+KfgWe7GM4UZSYBhpEiNOZGHVwYvSE8KEdAQFr77jOYiaVMk44xbpPgMTJ4TeZAI4eA14hE+aoZlZXw6Kc4ovpcJHcJxDGRTRzUYqrxF/4NpCgSwat9myXC1hwRoeMGHv9VMg8LbYditKisr0b/YKY8CoqGcWsEq//HFXYjinCcXzy6B6Qic4g4gujVMkdLys/HJheE5wBGyMfCg+i4ocCUsXHx4p/FxzukRMEt4fexBPzRUebDda2oPySiIhPzV8CAAK2xsxWgOA/tSeG2857Sx8pXP3SDjsxFNGoFOlUKiBjACVgb4yAJRmaUfuyk4zbKXZXZAyTrSYHqVGt4lJ08pkl/cdb3c/bOl8tKanRrUlfaKZHHVlAXa61HY4/yZYcmBrWEYfsb9XaqO7fKThbWL3XyTzSL1a+clvkKCG9liyFY76huluxHmYd14vkHMGdwnl73eJn94YTfECpNV3GDx38wP/jUssqm8qqqqH09k4C4x3BffjzwAOkVGGIqy/Haw7stt3uYREkJVs+9wc+B6NPw1DRoYxsoCBmegXvaHQMjijrn2vdfwNw1so9qlwemXq9UseIMJfLdiF7yhCuN70AXqtjZ8vPzsiR1Y0NPkgpNPRMCM7ZLeBqPddiw42PuRuc7MzpAAKEUlLdUCHy2ofyjRj8dAQwYgo8qEcXo2TDu4ogmeVokQ35f4fhBEOaMpAYSMnZIhV33gNHlh26uI2bdX2WYfbD3HZjfJJ6+bB3OYSVCUbMOxetxGILT9iKx+Ixh3ChQ+B/2P/UQ7jDht3O/MhmD6QrBlJ2gCgvBhYMOLYL9651fOkL88v1vupcdLC4T7OJPhb5P81C55/4dPl6LJaBu2qDTM1PXMNvTLiBdix2lXOCGVlxGwqPiAm2EYChh1S+R4lHpFbayQ9UEBRp/dYGcXLB1wDS7xYcdJAzh2wP3rUMpkWba+Xe59EtYDvuPBKkPMYWZGm49oibWDpvB5mCYwg3iXqXy0XY9eNEi/IvI8fXfcnKAxULHe9cPmKZkbirU9SEPts9pBA8M+Wx2Uk1y6ngc5KG28tUq7Qb0FmIwcbgcr17yq8iX2sq9CATbprRAW8y8e3yjrN6bKdZdMk5LcMerXSVs6Ji/vaO6WdriuGchC2DW80WqgTPfFVMT2g7dDbXtYdh84JCWTxktJWb7kF1CNAS8WrPyI7VYfnTGLEgsk0CLTpxXJr39yjfzu8bWybddBOX5ymSy5bAbY4zbJJFiDEjNUpwUW9oxrCytaRdu6yBI8H89xlYm6nUohkMDBGaM1GywC1KujRS47r0ROmnU1NM0bEMh2n5w4uVg+9L7TZVJBJfaAg2DnOS9YtGzWgyjut9sIgt1Q1gRoqEsNda40NKRJNUJzVVcclLLC8VKQjqB1sLlj2gBmBSQfoiOwMs4AlAxBak/hUdHGKE14bnsaM+Shv74h/9zaDTZ5siqb+ltWw/h6HrLt+bBh891RL6GhLF4gHMp2R0hbgwKGw7NzeHSpTgtlJzneXiteuzRYzyIAe0JXTNrIfraE/neFs6QOi+m57U3yr59skrNPnSSnTR0rc6ePhaEGkqEjInmaChxNInU1f8Ci7EgbLdV1AXlqOaLUrIMfMSlhxDh87zmlcsunTkG6UC5quEISmD2USaKeOds+gicjuZRCsf+lj00B8E4BLNCnuAZ10fccqUJRmc4r6nX4Q+pPS6JFpseiCqTY9h1oEhztb1wfIPVEj1VEVTq+MEtuQV/CoSlok6IP5ksB5QxKks3yStN6z0G6/tGjgkbCakMZLJIfPfiK/H05ouKgNn/wIOZ8vFxx3mwpzYerKHzu6S2byvoBiYRFWuV1INhxGxJrvVp+SNa+WScvvrJBqcN2mJd0qjmNp7h5iHs/vZcYMQ/NS3oXfsTO1dv/K6JFt73kVq3P0PO8InsTD/eYysNt7YfrW4LN8XC3DOL5QQHDQexvXNXuYYysSY0ff18sqbHsIjvGNWwCVPC3hj2DQXMXQlD5oIn8y2uN8sK6NxCwoEtmTxaZOD5XcjPBBlObjpeYkV7217XKm1UdUgElehsM25v9yISHOukX/tTybXLqSTvlsnOhIQzD/g33eF/0+D7zb5PBDZQdiUP6kof2Gq4c65QmQiyUzTKhu3EvJCnIZxG7SHgkfkNK1B7Nr8xc2bodmCo9RoQjtYjxwgfeB/tTtUu1C1RZb5rSAOCMeMICcaKG7DHeQ5tFBr5d+uIO+fOL+6QpPBVUOX3yO2Tp64fk5fXPSjEUqTNMvukVAAAgAElEQVQmZUlhfjqAHwANCpZ2c02d3VJR0yzlu8NIJpWhRultgWnoB/xlCcaYYOeEoPOtgXE5d9Qq93xn+3pP+hjG4J/qB4gPficGv4WjHAxjX6jIX4kokcGfy4QtGNbMLND4Cyjm9IP9GpXNSL8wTUMcBdWoUtFA+Q0WTBCLjyDZDut+usO1wKD8xUrEe9tNWVp0M+Cu3Q3wJIiG4RVAP1B1heIJ2jXCAPbxv26UC875AAAVwR7g4qhytD4ww1FW2hUUfinriTXtFi4pMEY70vOWfTQa4QhOmZsJVvY8Cdog/aEtcOkFeGY0ZenlieolkXYQFJj/RUhQtq1X4G5LbOr5wxUEHgnCB7olWAiWeznEhdASwZaROdICMN9pgYcSs+bVNXTK5vUMUxelpdjfkAYJKMR9DB6C3zCYN65pRl7JfDb0i05VDUy7FGSCggaA1zM+L8xaVCaaoPQXzBPc+pYOeXgpvS9C+XkoVz3WKyXbE9DfUgdG2MVHORiOsNmM605IvW/MFLvgpt5LTLy/bjl+UoHccO3VctttP5ZaONpozEEYxGpAXC5BXTOQTwHgzPqJyuV4xrG70fD6phVCFHMaEyMgHoPHDg4w+pB6PeA4Fn0fWBgFvAQXKSgmXsumcc+/CnIEux5nogd4zlzDBWbAtb/191Ftn6fo+k1QI8vbCp0LIyVrwFfYcOpvmJ50qj0qngG7ZUHBaZ9Zuc693XxjwYXASSCknLNOisdlyC3/+Wm5/6E/gaWGSyafZdy8Os8kAiiLMeTWn8kyBDPwzoL2IZiwt9KE92VmFOYehWkP4JO9bct6GAv75IEff1DeO7cbjvHVYAPBCioLjMLFZhcc/zQsJx8dgTL6CFWxzAVmrzeUB4GFUV9a5Iw58BtFDg81VLf38v7ePmp+0cdHUbZfH/Y6UUHfElId/a33yK7jPNKNMw2h/c88HbEy6caH/vA4ATFSeIxUYdz88rw75p13PY45ZorVDORluXhOt/zqrqvwjJFRY+s6bFAMfNBzPrzvSBIIe87PYB9JUoaDOMNkd6hJ5rqaM+eUHi3RpISARSorHRREdtY++e4tF8tZa5rlN7/9p1TugzkNzFg0sTkjgdNhSL1mPAtVa/X+jUXLKNW4MwXscCZSuvoRJWjWcSH5yOIzoHQ5oF4jpA4ZXSYxGPXo6sAc8AB6jwr7Otfj4oE7QGDKQLBczs0rG56VTRU7QR3mwI6RPvTwzVU5rgNd224PCpFyAxqKUznFaEvwiwcQlowJy803XCTnz6Wf7n7o8fNNTUpW9xzD3Hmn4yDlpvHPt+e1ySMDPwNJMBz4OY3UqDI5dZtL+O7jOqMtpSitpblZRmUxRWWtXDInTy6Yc6n846Ud8sTfX5XNu2BKg8AEHRD0k3VLgQO9snjOQNY7BpXFtWExIsIPDKInwQPnuiWnyUXnwNMA2l8fTFPCoIbYJ9OrvpjXI5scx76TCqIdIeeDMtFowdzwIlKfKlOkvDR6XjWrVs54ZD3p/e4UpQTbYDNZK7+84xJ55oVtMB9aL5X7wTojzBvn3A/9PeWIurnZ7nFMVCIxBUs37BHVAB2KnXSkT5g6yS9LLjldFp5zPP5GQFxkMuxAoIqWVsw9iGET4p4Uu5ENa5UJwLH3XifPDMYMJMFwMGa1lzrz8/MhjGdaTwsMXAVY8LQt3Llrr5TNZOYQeHkgajIX0aVnjZHz3/Nh2XsoIP9as0tefmWbbK+okKZGUH2wX4xodElvYFGHg0hTGQjJ5LIxcsrsMll41kKZeVwW/Jx3or5doEBNrpqelGUvHR6EwwQClcsRWGz9nA/9eBUqOBcJJmyQezB6ozLVMHyrUxEtx480qVeeN14uOPtGeXN3l/x1+QZ5fVON7AC1iMxcsUBODEePQrD7LMhPk+MnjpZ3zz1N3j1nkpSMRjxFUOAZsg0gyexbjEiZJ7t27FEFF9OW6kbp2RdKShD8gGMetLEOwvS9w6pMguEQPtBp06fLipWrYxYBlSRdMNjdjwCqZLSc9pn5ZyjfY1j77DHpcvwlmfJRUBsMqFtzoEn2H6jDInYsMxk5Br0NyQzGxAOlw6x5flKCCHefBlY5BJZZc1JgvKpU4cLzrsZBmAdH7LA5t8hjfZSNzFCpQnyYYc1RXqY7Di08qDGA/fRSeQRmBtcNw+woG2zuuyZlyqzrmG96CjqfgagyDLIBityysBpyDHLgcWNzpXAsPHIw55rnA5sOU6uGkW+cEZWMZp3zniL7DraCwmQyKvh8q9bfPW+R0tLSARxZsqq3MwNJMHw7s/ZW71EZk0+mTT1BwZBFFz/WuJ+pVCGj2o7Q+qGzkOzKFi42epxQ7mes0hjcirxxANnAUuXEQppysF5DX1EnyojjvpRy3MPQZua4WYZoSFnqWFMaI7qy8il7faQDh/vhZHx93BerJDDtKEVIEEb3HAgakWecXO5ttu9MhfqjiY70jwoTzg6VKfgRQvxLFsbd4ywSvObPAEuLNAJedtbPhEahfQDAKqUunb5cw1B55sX0KSBbd+3HE6Q/tVl2zEVjoheFZebMmWjHUJuHG3ry/ODMQBIMB2deba0GABSysP7LysoiL7/mCaGMjFGi4bK1Ffl8Q2GEuVcbN3hFaABY3E+qCfeTJab8kSiiIeQhG7QwFh0BwZELyqOMUAhUchDn2J5eTVLN3O2E9RrYgpQj2zM4CjSw15ibcBdTL7BPRsZH/1lTIjdE+6K/Yo+zbqZpCJusSKgL96MuBWUrGzR9760+T/W2D0Ymi9lBpxkD03j6MIoNQc123N4WUUw4oIoAujFOZGpRmhtFvIU4J7iXDH0awsUxUDGLF+Qpc2SwBpqDu9bMWEj1Gd9eJtzqpigEGx79uhnZmVR5wAaGoMNiUTEiQttiFDbDKcyIdOWY+pEEwyF83AvOYIpQ1XwACJjFhWkxYYQBA9xNW5BUO7QA1AgWCyi7AEDHyAQdMEQBw1gWW+viBP1XD1qQRqRronebxAu83BlMc+FrdBk9aBa1WdG4n5RklzXtcWYmBD8FVi50Glvzfj1g6oh8m1YdpaS+yfioIgVtKsvsbrF3KuzyHK+zJ8199oKYL15t6ksh4LF6jpmoymAVnFWysdbGM9IWI/1wLFbxFKY9H6MIARR5l2Ple7Zo5ojQT4ozpuvaduJCNppG2EYUkiEbyqtw4Qx95prdEDXRR5zvwRlnzE9cSfLokM1AEgyHbKpFZk0/DgvAwKGGG1NQ4TLEgkGi61Vrd8mFc5kqFIFBITM0q9xQZ4m6qQvTLkYvteJkYY7CiNxLDOL1SkFa8GsHS8gEVNQw0zKbcjtSNAQm1O9Dmk0/gqVKKj5pCOHOjH0MkoP/4nsWBV53xh3B36QAQXmZTxwSug6SUlOZnAVTS7l5ZXu81KWN0FrYSWJVJ8bQATvBLvzRiYC0XWBbmfmOFKRtLpDJEPQ4loYBIJCpoXJxLw6RUXbtuOvj55bnlYq19bnzrvs9vnEhZbzdKaP02Ybgbx4ENZhiM/K5+kgtz5w2xTxu050eVSUPDP4MJMFw8Oc40gJx6PwLzpPnnn1JNaosBAf69Ybg/rXqld1y9pyzQaQhhh+UHqZEISZSkfvBhYnfSnF5TrpFqt+g+AwA8gKsegBfVwsizLS1SbAVIflxUo2zNXeIWeV0q3MLnq3rh3IwhpUCMKbmIrJ0Xj7CewFoLNVIei4+nLoSjSg87uSDvVNfuE5FArzW3OdAkf0ncLjjpPp0TADvUEODtCOhUghgCJUEAiyQtQXV5ZkQjoV/djU1qdIiiD7TTTE1E/mbM9IkgPiQKRmZmAeMVK+NAqj233YnUqUbl+tmL9/sL1322oMFeLZM+UCfZ26HpqjYAP258PwLe6kheXgoZyAJhoM52xGZlAEsgsqZ8+ciafgLADBP1GgsiBByEf9zTYX827W5MiELixR5QCijUwDrpVBmR5c/FqVybExH/VspThYsPfiaBRvqpYP+eKCcCH4EiwBlYgqAABdqNuGDZgT6pFUJDSZxFe3/GOGFIa9opNzZjrSudfWSU1yK6FUIYUVbStsav2IVJ+5E4nGY9gG0Spbxmuh1DtQJZpE66eJIlGlDdr49e5DrhuZIBsQJhrzHgaaG40d1vN6JBjgtvIc+wtKEALCwfGmvbdDo4enZmPdcACOpRnYbUYe8W1HicXkGHveTYoQQInI3duTj2ULJEi4zihWy5WhANx1cs2DeHG3PbF6915c8M7gzkATDwZ3fmNopc7roogvl1tt+ZBZZBCwRdQY647q2bPnLP15H/EJkeVNWClQEsv31VmKoLLLdyv7ian5A6YWa6pFqtR6uffBdQYIkhHlV8xWG5mLKzZA/CwEdGGwgXWGXAVGZtIhJ7UkJUp5FEPFRS436fUBQH9hpH7XcsGls2LNf8kuQKwPUlYb7igBwbz1+m8ddgh9NOgXY6AwiSSLG1Y2sczB3aYNCIoS8zmFV6DDaD/sMMAe6pGJMQRpF0+sGs67ZEukhAjMaeovQHc9PgAU6dSNadWczqEckMM/IR77mXHwgJlB0RbOs31HM/RmJHxteNyJfP/239fpsu0EZuqLAirmlAubi9y5E/0hFeqG3Py0krxnIGUiC4UDOZi91OYqC+WeLJ4yXuXPnyqrVr5I0UAqBhQulNVwoTy19Qy495XTJLQS44elwCfdWGCLK6Yf90D7roiXrWFuLiNQArO4uxOED62i4P1RDcMMChRyrHblCmhFxpdVfKNv2tsiWXbVyoB7hv/buRXBYaLe37eZalbFjcpHoKVUKCzKlcFSWzJg8VmZOyoWByD7J7t4vHQdqJb1oAoCVpkKmr268bmzKJsfQjolH5DxQ0GVTHDhYkKXSgS6EnaDkwl2p0uKfIM2hMbKpqlU276qXfXUdsh/gX4tx1NaD5MP9J0wqxT1tUoqQZ0WjMuEdMkqmFGUhF/R+xKPZB99hJJ0HILLnAYCiv5MbQTv2km7krz4EUIQ4AB8BKPIastgsRs3TO3gxC14KNqBD+1vk6efegH/KBMMmx8lB58yZi3cC+btJvdpxs24tSXA08zBE/ybBcIgmms3oCw/AWDB/vqxA5Gtv0ex4MLHZW3dQXlxdIemnZ0txKeLnIXir4fXIzMaymswTbcAQixKLt/MQ8kiDskkH9Yf8cEoFppBqYtBXRmKGjzPTQDZ2BGTd1n2yZvPrsqECCxZ6B0ZnCQMEO0IFuAbGxalIy4qyrw7R9wAy/goab++XDLirjU4Py9xpfrlsQalMLPZJEUNX0WDZDoiYzBL5W3tJqjURq5zomKvInTPfBmvT5FBLttTUp8pTL5bLqvJuOdSJkK9IZ8pE5kFk8OvUpF9U1oRlXwXCnWEOUncjSnjKQUkPlSOCtcjMySkyb+oYmTPzBMlLA10OOW0a3RjD8C1GsFofNhVSw511tchtgrSz2TmSNnaMmj2pEkYpOdtP+6WbgKOOEW5tT027LIfn0L4GP+YXVgKebIwq54XoYcECaJFRnZrjoD4HiLE1J/8aihkYFDCM2IxZE4ahGMhIboMvuLJXoCoaGtoQxulB012Ag2GXSGHQvMOHhOlICPV8BbSLZ0mgYhsoMlB8OYguquwq2UACg2WHwfpBbSqh+lrpaAKFg9WUAQWCXxckIrKgvQ4AVaOMlaZAsazY2iz/fK1aXt2yH0H0s6EQGQtqBWwxEoJrMFmsboKyUiYWuNhvZJ4Gi5yF7xDy/46Vxq5OqXmjVlZtqZD/+Ph8ySnyS04GcoYoa2rHih44rGCttAGMyAcJJJwBtsGLOA9ULCibb4xreDoqozOwSrloQ2uGrNs3Tn5832rZ35mNsPrjTTxBenSgDd0wXNIt1gfFVAj9Z9TpVrjEBZB/ux79r3yzU57b2i7pf94op04dh6jWxQDHXHgig+Lt2gtwZJgtsNUYEOezGzLXdsgY0wGKKaPwPKBIitgj6nxxwPiHctumBjnYiBQCLZPk0Rc24ZlClIC+mWfnAVHU/T/3Pygfu+EjMjYP/SRxz4EnKULOwpCXQQHDIR/FUdIgOdn7H3xI6hvBwpHC8Cg83BC6EUZ+d0OePPHCTrl5IdJ0HqwUf+M+SU9PB9ucitxPtGsBe41kRB0tjUAqaFFRcboiLgEVoeiRBpX1tIMaOdieIUvX7pYXX9smOxoCmve4FRGwSS2q0bMtKn906MVjFqTceROdmRSkOdLBeIud++VPz70pp58yB6bEDEIACpDneyxmIiSNlhUCowXXEcCVSqJ9IBUKpmFzjWW73Q2ahAm5XZ5Yvkb2dI+VZgRj7WK8wbgSBVFDUXZpn+nHE+2/uyUdbosvvHlQVm95Q6YUdMs57xolFy2YImPSWkFFGq2+PwgQpKE70CqETUfligDDtJwc8aeCzEQJYlNi/9tbOqS7K4x5HqfPcHcjopVjdrhJRPtlWqcdaTMCdNwPQPz8524GuPa8xvUz+T34M5AEw8GfY2AUKR5jrvGHRx/vs8UgKJnm0AT528pdMr0wIBedXCzZ7TUS7qiDOJDKD4tGWHhpABhSJyZYK9oAuLWFsqTJXya7sAifeHGnrCyvkHqwxZ0pEzRLWxABB6gkUbTD/VEljAEOds6x474eoBbtehAsXydY0627d8IOkVmp4U5ou0Z5mdbDcaMYEMAx7gakEglyhtgzwIl21IME/Sc4unpMRFVDSRkKGnWhrXWbD0FpMkWB31CXsSAbuZ+NO+pbe+Ku46aBgna7uIGkFCBXTJZsbETahJea5U9rtsg85Jq56szJcsKoVskNV4E6hMIGfaTpDoN6MUBDsA2Rq+3zoHkUn00Ksht2+IrlBaRp+PuKvXgWUwDgVF2RPo4WA47myOOPPSmf/+zN5mQfc+65PflzEGYgCYaDMKmJquTL/+jjf5a9ewBsIJ/UxizuQh4LkV0F1dXqK5KH/75Txow6TU4rLYH8ah8WIaImIzl7xGyG9UC+1055IBYhIiLKnpZUeXz5Nnl2XSuys41HPVOkGylDaVfnFq4BImqGybiRhYWGGB+tVxcj4dB8myvIBjo2FN9gV/V6UIOzZx6n17NEw/6bgaUweC0LiU5Qrqrj4URQa23lp6Ylanx5P0GSgIL6uHlYxFSi19SE72457dTJ8vw6BqNgmH322/bfjoNjIHCZoAqcZUMxc8aNGACvvRp3Q9SqnkCMKpNhMtlBg14HG8wDr9XLilf+JeefkiWLzjkRSaHGIjNhA66irzhkijAxUnhDxzkfpJw74WPehHzOa6sC8vAzu0C5luEYzXTMeHUDQvGCNeehas9efTfev+hyO8rk13DMQBIMB3HWna+va2LZ0uewcEj7YFGAkqBfrUnHGQUHBxJt4VypCE6Wbz+4Xq69aLJcdcZ0KejeIdmhWphhQD5HgPCnQoaHFJeBCUoJPvZShTz/SiUottHSETAspLK3GuqfgGIoSa5G9X7BfzSbCcDYLi2lBd8toICYnAoeEdOhhcX1u3ZXSjPME0NgRztAdZL9DsKTIs3XJDnhffK+C0/VqDgm77EFPztg9lHBliALqrb2UCNGTraSVDIVHOiDAmBA6g6C5e8eDekBWGHmONGqDGA5cxbOHNtadOE0eeW1Z5C8KVXZdh4LQPmR0l0H05lOyQfnPLEUvr4Ic7ZxU4UCXxeUK13QgZOtJkAxWK6aDSlQm82J4KkhG2Dn0o4+HQC1+MTrzfK39Rvk3NNKZAniE07JbZbcYBVAkWPhQyBoU/yQL/X+E+TJlXvl4aXl0phSJh3+fIyPG4mxJzRjIugbkyUDyLTnDMmypS/I1VcRDHF9kjocxFXZe9WwvoD+f5DK8KQMHaTBHGG1jc3tcvLp71bKhMUpEzTCDCgN/k3bvxRPelFelwH2rCC0S06Z6JPL5hfJnKmFko4QUSw0kdkAk5gXXquRF95olXrfeKSoHKPH4V8RYYGV7SW1pNRcp9rYGS8XhKZHvuN5p0ySk2dOlONKx0BxUwpWlXEPCbgAMR+pyizZXnlA3thcLStfKZet26vluLJR8m8fXiBzp+ahj3vAsgPMbCF4KRDyzaKtInyAdx/Kk6/8ukLWVgBUAeAMXMBCs5csgPCcyW3yw09MlknjYQhtPUTi6+NG0Y1sgS1g+ddtaZff/H6VvIngB7MQT3/eqSfK7GklMnniGMB/O8bOoBImdmAIFOSmrZWyFddu2FIlq9fvVECk3DQIY3duGIwp6WW72Xel4EABpiqM1klBV42ce2qmnHNykZw0ZQzStZI6hTG6H95DiHv41zU18kpFWOpSSjRdqANzUsUpnAfMv1L/fAd0M6DRvBMbdMnra1ZIQR6QPAmG7tEbLXvkr8H9kQTDQZxfLgINaABoeeyJp+WWL39H2TK/Hudqg1EwUlIybmFOTrYcamXAVhrmGoqIXfOFkLOXyeNB/TCkFxOaF45BGCjcfwhp1hjkQSkeLMhOUG30x1BqheymI0W0RgIf9MJg9TKlRt79riI587SJcsZpkyUfVh8+UIShbvQFVJEaWysaEM0IpIyygsgroHI0UjUAm54oNEOh4TLZxhRQq86fmUCofefIOc7GWtlVXyjX3b1RKjpPACVl2HalzNAv1Cwlge3y8Ndmy6Q8xGDMGwWAcZpzUxf/JRvO1Ac0EWIorKA/F7I7stXgsbGpaF1onPI8l8NElUSYD/adtoK052wApbvile2y4vUa+dfaSrDHRUrFcS7dZuVaZR9JydHcJg0UdDoCwPIZcC7HkQRFOVDXAtkj5t+frSZKfB58DhRLcBo5n5yjgtwuaW1ph+lPvsmOR9AndYnCfv/otu/JYrDKFBO4d8f141j9dpYpQzH+JJs8iLPszY73rxWrIrIiBUIUUhUMF3/mSWOxCN4r3/8RNM0dsAUMAZ3ATupCRhrKTixSJBRVfYI/ABBsgncJbQitLNCAH20YWStlgARTemvQ9Y7eFljAiLg8Oisol553klx85mVSimjMGUgLkMHkU/DQoKZUWUaQQ0H0j2kuCWcEA7bFYthJAA/cVTgGep3wmy+sAi8WdwwQ0lYEWta6+jap3tcgLR2UcdJDBPcq6LKvyFuMdju6/bJnTwOo4DYZlZkNdh1xHtFrF0yV7fvQJzK8DKcFH0P0Y7/2K2yZGydi0IMUO3Ic7BeVTTzWzbH5JSsjAzaSY+X8M2ZK5fsD8uzL2+TpZeukvg1BFSwrreIFsNldGHvAx74gq0kwHfmR+RBYf1AONJt5CTngZvxDS+mpCyDGxc0s09cs+UgT+u0vXiePPvFXeen1VlCiUW8UHQOAc8XqtbJo8eX6XpgAHvpAj9kylEDISU6C4SC+amTTqLjg+lm99jVtidSSK3S/SocS4qwZo2VuySH50S0L5Vt3/U5qOkpBrXABmjvU4MQgndbno3sagJKghR96lVn0JsgBGTFGvSbQZoYPyuTRrfKR982Vi999IpY47RH3KkgGyC4DZkmcwCrRVIXfanBj8JqIYkBZW2E70W8FRO2COUggIDAHAIp0AYQbjDQebEALBbJhB7ThADh2V0MVEEC1GdNQZyggG3bWyQnFo6Vx/yHJG5sPsxVQfgrKtijSAnCVYmUx3wb8Yw7ZP+wlrgrtK9sG5Yh7Sa3ljM6QqZePkhsvXyxLVyD/yVOrZFcdU4SOo9cfKEDKOM0zi2bMo/gAmwRiUbJEAJuG2pwLzgu+gxAPZKQ0yPi0Kvn+f3xYZhQfkn1TU2X1G02Q9cKzJdpL3XBWrF2rGyalEzTudpum57Lkz0GcgSQYDuLkKouF/5iEvLpyDxZilP3lAlPWNdQE+VOmjEJKyVMgh/vhLYvk1nuXSUVtB+AqF1QhzDLouUAqMVJcPRZYVXuKk1jkDDmvlCBkeMVj/fLh971HLjljIhLH74Vsb7ueiymKJ6oKiCtR0CaVE9WAuiVs2/TcRcMYlU1yNSOMVschaM67s+A2N16Wrn4T7C2Nj11h/dH5IOu7bM1eueg90ySjGwbOB/ZIxriJiBgGuR4BUf2O2Xa0X977PRX3+VPnSeeec8S5MLLODHinXH7GWDnv3R+XZ1bslv/31GqpgjteEBnt2Df69ISwCUU11ATB2KbUzEnrhswVFG4Wsu5NGtMhX7/5Kpld1gnl13591qlgt3UTokgjMgc+fUcaGsED5MF/SDG151Ppc3DJk0c0A0kwPKLp6/vmbrjI+WAovXnL5h4XqpEHKLPxSCZUPC5b0pFo3BfslJPLCuSeb14uv3v6VRg074QhxwTIovKVCok68jsQiYKJKkYgV8yUQzJxTLt8+Io5cuECZmdrhEnIdqUEKZsj5davgsXoWF76FhsQMfcaEOBvB0z2OGRjAdUct0o7gDAAQBR4uWyoCEllPVqHdpaL3wsirl6yp7twzbodXXIu3BB9XQfh97xH0sdNgGgA3hnYSFT+So2vxQhXj/u7X+PyXOTmk/fTPzmdOWf8bbJ4QaZcccYV8o8VO5RSrDgE8yV48WiUamxMtJ/UNt1cRhQeJgo5N6JM5J9ZfN5kue7KOTIqoxlAeEg3opKxBfrMGxu6KOFU6PSW8vJyOXPBu0yEIGdT+lYHlrz+bc1AEgzf1rT17yY/ZEkUt23GC65RoT2UBDW1XBxlE/KQN4ixC+ETi0gwjB8zIaNNPvWBOXL6qafI48tel9WvbQeFAoUBFyJBwUk3VObG2H0AQtx/XFk+TF3eLRfMnyh5oHRSQzvRBkxOPBSpl67qcxQqnzNXsxVTHAq5BWyOMzqMydkCsO1skfa6AxhTpyokWsAOPvbsJpiajFflhaGEevaC51r8RfLU8i2y4Lop0DDXwlSmE/7WcI0rQG6YAGwKIbujraARH2A6IYZgedvRXiwLbnoD+SqUMH5VaMHHG59L542Tcxd8Qp55eac8vfQ12VG9X5UjQbD07EfU15haekIb/KCDLTIfdpBXnn+lnDE9DSLR6doAACAASURBVJkJYR8KmWxAE0ShJSToKptQIBUNMNqG/7L3neBYyjeXy7vnvytqXG9nPvk1+DOQBMNBnmOyO03waSUL5YUAo0VtlyklxZARIUozlAB++tQCWGj24kvZK2cely1zbz5V9h+cIStfe1M2vrkXBsE+2Vm5V1raQjL7xCLJywzLySeWyPzTT0BUGQRepWF2eJcaZ1M3rXZzPbgtB2Y9QSl2Osx1jvIyXiJGqaKKE+I7LvEB8f0IKBFuPQQf6VqlDpn4vtk/Tl7e0iyvV4Ll9zPTHHtEuRpAnfdgrNwk6EMd9CEUF7Ss63cdlH+VN8m5UycoW5kO6rL9ICjEnNESyB2jBs4aqotUmaXI1JYPxSh4egz2LTxh1AOkZZgw9tSPdK1poHIXL8iQKxaci+fQLmte3wGznmqpa06R8u2VkpUZQGSc8ZKbEcJzKJO5p0wBpZ+pmudAsE5ZcbW1JHBDhsi5mlQ0GmOsAuBBBGBUO5E+NjZGTZTeQseTlw7ADCTBcAAmsbcqjMwQUqkELzihkWY1KQAtPygNlZpTAYEFnoKsa6lg26C/lMxgreSMypCy80htzIb5DA2fEVCVigrIpQAhauOXCjs4yqmobfXK0gw0oM4IRhA4DAgawuhwgMjROfDkrVDSkG0GKNHzQ8k0UHBdAMEwgr4yDBb71ukfJTVdpfI/Ty6H61yJ9jmS6sBpn0lfUdGAb2Nkkw4Tl0K576k3ZdoXzpWJAQA6NgrqeFm/gNpMAyjSR1vVLypHJaVs+hcvw2PPey9Rzbe5xjsnJNggz8X4AthcaHDDSIh8DhPPK5UrzpsJ1Us0PmEAVDnBj8op5l8OQMvNzc4V7Z3OP6l4zhl9njs08EV8aUY0bm6gPTew+CuTfw/0DCTBcKBn1FOfmnZA7rNp0yb9jn3BASrdrZKFcFihTrBQXBhK6RC4zOLWhEYASQr7Ke8j1ZcN2WE3Q9sDjOiRQaqS1nNcfBoZWxHOIJ/TQLNLZkE6eZ0JPU9D4Bigi5sLF8Y/CqS8Gn0kew5bPmqLwwgW0dkC7xV4jtAej8qObgB2s4yXW+9bIRVdMASHkTU1wC4tpqPoDBTw36hJSjsiy1R0Fcnt962U/3PzydgM4BUDShnWhUgH3YhACJCBZmeLL5sxBumOl0aHEaUYGZSWJZp+wAPicWMzfzqlFM2KLKDq/easdwOhpw5FGSlkeeGtk4EeOXEFo9qY+QcVSIxW90D2JzpCjSQEcQacHBDhB21x/gI9wXDTpvKEPU0eHPwZSILhIM+xEnu61ccWLj1SV6XFxaAWqmFoB4oOkWlMYneAGRZnCPxpmClDEXYqBUa/qbYe6iBdcayhthHHITptJO3zzCmAKH6QzjGYyZUbuyANS8xOE5QNRRnpvS5uuMt1tEhna5P4IB9MBeuXrv0ECDLfhz9PmkAJ/urJDVJ+IFNafIVoi+HBeK8zBA9h3CU6hKo9GDsKgZKUIyGfkXXKwZL+4vHX5FOLZkMTvgcyxCawnZ2IHoNrWho0eC1QUQLpsElE/pIUsNncHPg/x2oAjdCtM61tsDigUzbbghVpSzd1nB9HaTrFkVKcOE7D8oA+AwAzKuK1Ou+0+aQYhG2T6sVYuhBY1x8g2FrAJUXYgUTzkKOWlpQg3OJO26PoFzdMMw+4KzLpPS5LHhikGUiC4SBNLKvVxYI1l4u8Gl6bQDU9QaFCYMfOKjmbFicdWNzpeTyoi0nlcwAHv4KcXRluxeJyB2HG+oJGurwsuoJM22gctm9B9WjA4lVvDXONyQxHrSiBwtRGrxM9y4XLNJqkNOGVQsPpMBZ3e2ujgRb0jeHzNTETgRV1dDNgBKK/7OmcIL95plKWvYEwDgRCVfYwtiKq5FBAjaq3xd2362bw4Y9eAwBB+xw3AQU1EpBboIV+ciNkjWk18m8XT5RCX5VkQ6mh5s8cK2WUXQDmzgbpbgIdBnlrajq0vQhxloKwWmSlEa0WLVP7y0EZQORIHdjpPKNtx177rWKK8GWAzc6MnXdHsUcB1TxjZ/bkZKuczgD6E1QKnmNm0i1UgkyEPvRp+45KKyuMgjR7GASo8l3xPEYeTpYhmoEkGA7BRM+YMV3+vuz5mJZIsYShTaT7VwDuZF3tkCPlEAqMUoEkjgG6xB10sBcjJ/OAJQ2vU5j6E4WLlCys/lYCDa0T69z1uorx6QDAwBwo2AXXPLCD3WDflQUkeAPEQLcq+EXYRygygmCJyQa3Ih1mRWOW/OR3r8j6g/kIJjtJjaw5zijgGvD8+I3Xy4K5JylLuWTRVfKHRx+zUGUBCyDZSZe2wGR5BsFo9+9ZLZ/94Klw1cvVQBXpMCFKgdyN8lH2zWwCmEPEEiQwqcYdRusBmORIagaMt2G3h6AWdMejcoTASDmlUpIohvKL0ocRsNSzTrSgf5gSAcfoFHrORn8C1RQIOWGg8DvbWgDaBegbTWrMJsGpd8+Q8lO+K8nCzc7zMg/RhCTBcBAnmhQEAY0aU+9Lb2zmSE2lISIMAAgX+kCJhcH6+TOhHFCbQgKDWbh9dVHrdRcQ5CLvkKX4cAyQpWCmSxcUlY+pBGDGQ4UEXQaD+Na/2SIuIYVI6iiVIMiXEnUY9o+soalXw1YB7Fphf3fQP0X+vLJGHl2+QQ50Qkboy1PKhy0ru29ZcTKts2dPl899xgQyZXvf+uaXVKa6afMWOwrUr/dQXiqap2XN/gy55dflcvW5k+XSubNkDOwms7GB0LaSM6SsLcbhxzxTbuqHcXQKZXy0c0ROE1LlxgcYwAwXRlKNfiZ6IkDCz9qHGI8MSGHmGxQdh0hKVcdKOLQgbXtojnn+6OUn54xAyHBf4XYAIfpI1ruplYnjGU0I9bpdjU8R50J4TireiBzvpfLk4QGfgSQYDviURit0cryZM7HbW0CIsmsIjgr50e499RA5gZ3EAuhqrkc0eYSWgj+yT23ZWCLo1qOnul6UveQPLiZFBV261Ibq35Czgb8FlQdKrwvaayxM1XRiYRL0SFkxol+E2mNVLpCR83phtaQCEfaK2fRoNkOvjDZ4yKzZWie/feYF2V6fpkFlu2AgriIBCyRu3GynoCBX7v35PZKXA+NrsKeUj/H3L+/9qVxx5RKpr0f+Y0U3A++k7jph6AyVAzjMLLnvbzvlhZc3y/vPnSBnv2s6gk5AmcLwXQwYQe8bDW1GUGekHIAh6ud88CU3LzooNbD94W4AJKlHNoZxmRkISFo6ZI9pyJ+cTsUM55WsNq81doXsmjP6JuV9uKIQyk0IFgNBiBj4jIPI4ldVc0Cj5rjkUt56Zs6cebhq3/Hnh4Mq5KQmwXAQX61uXfB+KWE6TV08hsJgk5SldfsLZDPiBXYHjof8C4sPIaHCrXXiz5lAuIq5PmE3LU6qQTdqpCyN0U5AYoLlbYKSATH3QPH5wKIxarUJmkWMNFQIcVZBkKDB6Krsnv3bSg8Nu4Ix0Ni4HSxeC8KE7evKk+Xr9sjSVeWyt5Hm3oj6kkJTE7rOEWDNONVkxqJsHkLjPPLwfVJSNA7NaEctC5kCZUohzt0vH77mBrgutmifNN8L6jJ+xybcf6NMlE3NLXLHkw3y25ca5PKzpsn8GcfJOD+i/qQgkx3sAgNsHxU4uR4d5JQ8Z8FP/ZvgjxzRfgZWgCw0QPmiaqsBWm1IABWg3BbJuDIgv0vPhbwT4AgQg0okQiWaCg/3L2ljPMl2ZvNrQeOYR3jhlCPsWifmkcvPsMgOWENSVlyEqaGiid22/T5cM8nzAzIDgxrCiz08lmMaMhIJqQ9GZTlx2iy8+CawqXtyFPqP7t4i31uSIxdMh1ICPrkBsG/+/FII/RGA1Hpc9PWkFWtgl+iD9wRDP4VbqWklCCLkFwWDpJBUXkiWDAADiggpOvANVQQWPAMhMDqO8f81UV1IW6ofLu9BHxgPsGJfk2zcXi8bK5tlxeZ2GFRDTogFTXs7FzvRLeyImQoAmNRnAfIPP/zQfYiZeDyAzixw1YITk9EEtchkuzds3ibXXPsxJM2irR1UDk6YZjcS/qnmRIClVPh058LLJjfUKPOnZsisiVky67jRUlYI7TK176AAVVan8QjJUqMvSkKTCjaxBdP0PMUGmDv9bT5h9DkFbHMXqHPOUWomgkZk5KGPjHsI+sFRzH08GLZHCjylqxl5U6o19WgrYjG+sDUg334UCaNSTrT9YSU645KPWIbr1r6sGxL/PlZLkjJ8Bz55F9oKhAaSx18kf1+6XCkBlyOkG1rbDihR1rxZL3NnTJWCFNjTdbVKV+MBSc1n1BKAlMoOExf13oBsTKNTw2axq+kg6oYtHOSPGjMRIBNJEaDUGFUOMGyG0oPZ8brB0nYBdBkxRk28EWKrqgbBCbDoK/ceQsgtv2zZWSOVNc3S1E6lAwAinAeqphD1MKZgpioqOCjj8mdB1y5kUjYzp02V39x7D6g/UoQoFgQ1HQoFkwrMhtU/acYJ8ucnH5Wbbv6sbCp/E9Ua4HTgyu+gyjBBbwFYmtHPDgSz/fubzbJsM8DPXyU5aWGZVJwr06xXSGnhOJjDdEnphDGSlQZ9MX7TDZKfNEEYf8YoRIBbjeCjrDWqZ7cwhwG0z7kMt8EtsKNB0nLhBYNIOlQlERSj8tmez0c17aDQO5oPiL+7HfOVKa2BEjzrLRhXzyRWrGE+UsjSfZNmNdycFMyTZchmYNDZZCd4H7IRjaCGDJuDtxuLeOEF58k/lj6vv6NyNLz08Mx47rX9cvm5uZJLY2IY9Ia7myXYvF/8uUVYEEbj7DSc0eFB0uUHhQOtb7gN1GArzE6wwJUiwSJiYIdOAFZYPVYYExFh77EIK/Y1SgUSm+/aW43f22Q/vL8O1oFJ5AJE5aQaQ6AG6VdMrxHEWkF6gWIAp3lV2A/D/pKKZBpNojtaDYI6tZSXG9/7lyySb379yzIaaTAJhEG6HAYINYqJioOOE+Q3Fz9Z5t/99gG59fa75E+PeZNnsQaytoaK7bayvDZE4U5BZBmfrfcgvGGqKppkzU5kFNRArFvRRxOrkSNIQzWjYYFTiEDUk8ZnynEAzknjx8nEwlxQ0rjex0jgUHbQSwQQFsBmQ2CkDLYDyenTckBJZowCfiOSDUOpGYjXMbFEKELMXLD5EAJOtColGsSms6s+S5avb0Z4METJtnlgIjfix8KF5yulzBlSsamZKu8lyd+DOAODziaz78cqq+zIfb74tfXNctrcswAABlScT64PCy8DEU0uPxUa00szZGxwB5YXgIaUB2RWvpwxEC1RKUG5ljPzAOBRYYDI16EWUHJtYK/tgjXoAgoQi4+a2Aawsm9UhuTFdZVSDpCoqbfRUpgoHn1Rtk+ZMkryWD9Bx/M3rokEhsCZCOeKa5yhNEGfRAxBmAqD0tJi+da3v4oN4BxzXGEvWlwdvVFWNMAhxi59drl87wd3yJ7qvQB3yhiRfZlgiPpc7hgCpBeQjO2jN0EURmZlpKSSOTIFLB4jCw1KkYEuGElm5uQ85E8uk5PKBH4wyJ8cQrALeMC4wpQMDMfgywDbnD1GAY5UtBkHtc8Aa6ZkwD3BpgPIaIjYkaD+OZbawAnywycb5W9vgF1GoF7mkjFsu6mdip9XVr8kYwuQaZDkIcqxvm6ib8zQ/BoSMDyWH6x7jJSJ3fSp/1Tq0Ljm0c6Q4MFIKV0yBhTMvZ87WabnII4ffI3JznWD8gin5sD+cBzsXBDoFAuPJcx74Ifc0bhH/GoLyNwaoBIZmZlaXkSKaUFO4RfW75Mnl1fKznqYqCCmYHvKaAlBgE+KzrStjGvvJaIBd5f0lGM5IT8BZhTsAG/82PVy3bUflfwCUGwEyDgg7L2x2DOELP5fj9QGDzz0sDzwwMPSgIAXRpZIUxmy5g5kDzOOPhpVZQXYY/ogZ4JtzkKUmeMLwnLVOaXynpMnSFZwP443IWADFDuq1sKIMM9BPJe0XFgBaOpVGHrT84TADIqys6FGXQip4abaqj11lJQ3TpCbfrxeDvmmKoAaHTcpZD6LoLz3wvPklz//LwVUNyyC6LFYhktmmATDQX3bHHjQ1i1FVq9ZLx+55galtEhVdauWl0YaQclDprn3lNXKN66fL4UAxszug1h3avQCEIRmE/IqxLJCbwkSHdJZZxYcNcXUkFJv2Q6WuClQKs9tDssjzxhNb2sIScyRm0OTH9EtDv0wC7AfKy3OPCYermiD6ANZVFI2Qa5edKXceMP1kp+bpcSpY3v1HruqY1uMpRb1Mo4NxVGOykrjMsrQahtb5P4HH5JHH31Cqvfs9yhX9BZ739sDRZewiQkJKFzQoAsIkDFxdFg+cNE0Oe8EAS1XAwoeYAy3SCqdwlB0hQM5EsgD5Y751Y4iUEVHE2IiWgUNqeR23xipSZkqtz+0Rl6qxCaFMGWkTzUZFGQSzBjAHC6/ffh+WTDnXVZOGH1voqM7dn6948GQj/JYI/uDjI+nEZoNGNJT4rrrb5J/vrxaw3XRX5dGuFwYpEryunbLh84rkuvOytHI1wFQFkqNqHwMVCGow0Au7O4aD4ESYWpMyK9QTzdkgS2Qm+3rHC2/fGKdvLgtBexxKRQdYMfAXpssbGAdaUKDpUhqzrCZ/RcZK1vpLej3RRdegJwdV8p7F56tGnPK/AjMJCjJbUdMQxKCISuLBcR4MCT7yXrIFnOBGBZe5NlnX1JQXLr02UiPnEzVXRPb2cR/9WC1LfirWyIoO0YDKgjvlfNODMm/XXmKFKbShAciCchmSZuScvcjqb0PgNjdCA04Q69BgaW2hYg9ySiTTTCbevDFRvnf5YhiDa8c2mZyM2LbxgMmJAvmnw456a91jEZpgu2RRuSQ3R6LJQmG78in7tnhsdBI8axa86p89JqPG9MVpXyw8AAiZHVpQDwmXCG3LJkk50zzSx4CFDAznnk5cL8Cq5HokZUiPUilSBO0u5sO5crPHt8mb9QgvksAeZORiJ6L1SR/B/WIBUhwoayS2GSoQwNG8b/Zhl6P+lnIxtE8Z/ZJs2Xe3DmyYN48CPvPUizTOknQoUNOBhiRCUZIPI7RUH1mvAYMCPI8HCKLiR8EIU10Zf2nXdL7mHrR+cjfaJbA+PLKlbJ27avy+gZEB4JczyntVGONouH48eHmw9iJDqRd9/i3k39qP9gpmCvRFTEdAMc0oSeOaZEvLJ4u08fCpAdxFpGxGvUY2SYpPRazGcCLBGMgNd6UUgxTmrDc/ccdUuufrEosZZGxW+gYMG5aGjxCqnD+KVZpwjlPUoY6oUNchoxN5riONcrQvNQkkcxi0YWPz79/8j9k6bIXlNIh1UMKgZQXf1NoPzm9Sr52/ekye1wd2OcDNGjBQoFRcESGZ+rkwiIQvr4vV+58+HXZ1VmEiNLjUItlw/DNRUeQUQAgW4tO0OWL7JmJJGPeOIIEy7Tp0yU3J1dGFxTI1GknyMSyEo0wM3feKVQaKwByHCyUB1LGRXmot3CM2q690EtUEp/UMcTgsN6mrDC+XTXsq34sKDrwc20YcyFUonacNEMxfSLIr179hlRWV8nuSuRJ3rINMsd6aW5uls2bTeoFB4T6bTcX2F9DRss5MyDtTa9gwqSZ/CWT02vk6x87RWaNqdXnwg2MG1LMcwGVT3MpymjXHyiQOx94BelRy6DMGheZDzM/Rpmz8ILz5Vc//z8KpzonkWdMQIydVzf+d/L3cFGFnNMkGA7Fm2XB0FFFdU2tctb5C6WxqU0VAS5gAM8zYxsTxxdl7JVvXjtbTi5skdxumImAQiQKGY7TRJJul9GyrWWcfPmXr0lVR4l0BgqQZjTNUj5mcevwFAQN+pAynFg6QRZeeI7MmjUDHg8lMgfUnma7tAUElAKeAyFleS2xwqGYRRulBHubQjZJ1pfXEwBIBf1r5Wvy8qrVCsoB2gvCXZD2dWfMPxWNmpoi4Oc0Cb00QPDyAi3bUPy1FKHrqwNvfnNsa9e8ItXVNaAkN0Jj/bxUVe/TFhghshsVci7oPcSi6Voxf2kwueFzKU6tkjtvOkmm5h7Uv8kyOx9mbn6dMEavSxkrbxzIkdsefANRfIo1oTxNldymaCruxqaTIf98/jkZhW83dnPOUYb61zFVkmD4Tn/cFgxJ6GBd6Zr4B9i7mz75WVA1DCpgUMCBJanE7PB+mZhaLZ//4EyZOzFFchgCn1nVmKwd89XqGy3VnaVy50PrZOX+8TDoLUWOX8eOGrkg60tVlAvBBzhXlsDu77rrrwEYgkohYaQ1Edwsm0pwUaQzx4yI0VBpJoezOa+gY1lbvbi3YmWFtfA5vucX98qjjz+BREjNSknqS886DL8oeXl5iGBzpXz+c5/Bb/gIW0COqFYTtOHAkGDt5H86FjMEp7fRO3ncywrzpIIlzu2urpX7/ucBeeIJ9K8R/cMxdXFUypR9NSw82eDcYKXMLTwgX7n2ZClN36tRdEz9aZpEvgEU4NpKn/zk9xtlZ0exeuloHXaO9WIewTP+5b0/loXnn2WoaDRnp4uT6y47pr6HEwg50UnKcDheN6xCAsoPbv8vuf+BR1R8oPItyxaySzSgTkeqydzuarnhvcfJ5XPGyLjwdqVGeG+db7L85JkWeXptqzT7JsA/GAbbii/OLxfGG1jsudlZ8rGPXSc3XHdtxNyF9ffH5CWeMIssVivT6hnfz1CB+mIZfJfyLdvlAx+5TppaoFhgwdgpDvCyvo4tJdjk5WTL7x95UGZMO14vt9uEzo0D6ghqxHfQtBBFld7Oe67jXLJwbHUNrfLQgw9Da/2w1MMlkC6LKtdUdpzCB8gQ8UyYdvWK03PksxdDnBDcpZaYbfDbPuQ/Xp5cdVAeXrpD6sKgCBm0QpNgmUIOgLmUWT5x43Xyza99MToPxygARiYHP5Jg6J2NY+g3JUaUdX31a9+Vxx57gvCgMsSYgoWY5WuUvO4d8p6pAbnpqplSmA7KBUbCWxBF+gv3bpEDvhMjtm4EC5dnhJTH7NnT5K47boXs73iVyTmSKV4G19u0R7HEQlLkgGUhLcXrQNJRuOoKjbJ5y0750HXXIRcwjMMtdaQnHKWMn1qTBQL2n0FQqUH/3UMPyplngHVWKs/KPD2bhdYzQCUCiBZ6N5Zvky995RuyaeNWtd3kIuW8cnNh38gyF3Rtlf/+dyhUxtPrJ00OtGfKvU+Vy8vbuhEuYqIGuo0vqmDBc1kECvjOO76LGeGmdGxSgfFzw7+TYJhoVo6RYwSIRlAjH73+RlBQ26ycygIiAIPmG0bLDC8VRHmelNcq1y46W6ZNHiP33P+4rKwcpVShARpDORlACslJ8HV+5OH74fyPAKe66CzvqG+dATemFeitmFNcqHEAjSMOEyOUIn/oQXs9/q6ELeClVyyBXBTuhQyTBYA0LLGnRQuKXraQgEjQyYcJ0V+ffExKimHHF0fh9Ubwuf44cOtjeAmHTdMncscsDY1teC6fkDc2blExhqNKnTdLLuxC55fWymdvvFq27DokjzyxHOk/4X8Mw3ZqjWmYnWI7Yr6MwmTm9GnyyIP3ScEoeKB4BZ4Je3RsHUyC4bH1vGNGy0VGI+im5nb5EFjJ8i1blWpSCpFAYSkmLiZlm4MNkulrlgWnnSBrXt0k9VICt7v8yEI1mmkoSIrHy1+eflwKVDBvVne8zIodcaDR2yPoDUx6A0Oa4BD4KGP75Ke/CLnoiwrUCoTkmw/HCjqWlNpuNHLR+edCrvZfFAia+y3aAZoSdvlIwZCVsp+kAnWjauqQy65aIpVVe4zJjs11wrmkDWJ+uAopWk+WFa++ifzQObArzJMQklQ5kHNgqJsExj4LUax/+9B9Gp2GXi/HnnVFwscWOZgEw77n5x191rGVBEQK7r/ytW+pu148y8zryE4xsjPDTTE0FBcrja2dWxcnSi1FEDDhr0/+QWbPnEoBYsz8DQRYKKg6ahGUDfOIWO7SULb4u3zTDrnsikU4bsL+OxB0FBZB0ykzaDQekQXa3jqqlLEAn37qMZmB0F9cKIwm6CQJjtL0Um0xGpPeyMc+3ijvLUrsYt43bN6uFK6Cum2c/eMzCKiGn8oq417n/LzZhNt8nA/0xRddKHf+8AeSj7iOjC5Of3UqoZIlOgPDDYY9eaBBfDrDPdhBHNoRVc0wXPk5mfKLn/23XL3kSiw8RlmxcjmriSBg0jyjE8bUlEd1poAKsUEfXOM09r168SLk0QAQkhrpsxzuPG4mIjgEZV34rSCMNUyqMgTgW7FqraxctU5eXr1OlSSUg1IBwTBbiSlPxG2Ef938eafJGQvmAOQQibuXvrKt/3ngtypFpBhh5eq1smLlq/KvFa9II9pSKk7vpoLDsP59DvktnTTzQ0XO+5cs7gHYnHumN+CzoIE7fcKdSEE3L24SRGwA/9XQ4vPZjkYQhogGPwmEMU9jJGDDkGqTOfokaxB9B0Ab6CLrJqVAcxPK1rCmH3/0z/KD236odohKjUBx4PKoxK5nk9ktGu8vJE8hHuDJs6aAVfNQHV5A04fQP4okhh0mEBIbcfsfH/uzPPzwI4g5uEX9q53BNqtmdjdSe3UNiO6sYOrYfQu+CDJBFn4WYheyrvLNO+UjH71eTW4cnrnxUMZIkxtqYJlc3Vs4HyfNmiYfu/5aWbzoCkec6iX90ZSbuqyMk3945wgDj2Arjm/YvEsuuxyUrn0+UdfEWFqCz5IYyP6T+iU7/M2vf1WWLL5cn7NxtTMtBzlvXuNO7+COwd/HJBjyOScB0b7tNNfA6qEnCOeElBAJQeIYg5t++avf1ERJzKamwJKgcNE6trIMobNeeO7PCEtFvBsYMNRmLRBugHb1a9/8jrq9kZVXv2hQsGzfsav8dtFkYvts5Gaf/+wn5YufvQkEE1lljAv1//gnv5Yf//RnOn6WaKRsEFdWXmjqNXNAYAkBIGlITu1zCfIQ//wX98jsGYikzQpw3ADW4RifxGDopOh5agAAIABJREFUFEtcoBq0FpWedc5lyFezl73Dx1HV8WCI6Dd4ngRCKkruhiZ/xowTdUwODJWa9bgc6sljvIwEIOQjONzbMiiPiYMfKRMwKAPsb6UKgDQ8Notc5YIWXGbNPFGeeur38gUAB+WE9JNVI2UFRmtqwgdoMY/fZ8ybGyH6uOgihSSe9/MW+kf2k8Tdxk1vyjU3/Ju8Du0qWWDXD81ER8MdKj9sm9H+OdAwDfLKqxcvUSyh94kmSsfvxWAjo/2lbI4UrwFZ5ybHGrz18jg9Rmi0Xrl3v0YD2rSlQqlNBougWOHwxfP6e+ZHZYL4UEZp2hVZsGBeZK7NsmE/0X3bDPuvnkR4Vp//3E3y5BO/VyA08kV4tVgym2NIEgOHfzLDccWwgOFwDPSoahNAYEAxhLSan5S/ga2cP/c0Y+dGLSSpCy5CZ5piB1eEZELUoXABMqr0kRbiL5uoQ0zBT37682B9yarylbGvTVz7fbXHPpUUTYD739jIZRSpka0sKRqr5xywJwKbRHVrKC2KF/Dd1NwKj55PSz00wCSKBwJwGECCfSKOlRSNV6oz2kfTIz2PC6gdZvSZp574k3wWzyzgN0bah9WgJxrYMXRspBBFIRIhx9C8H3VD9ZPawEKbNv14+e3vfiN33nkrvEgQOw/klFIhCUxV1CqHVI0Ng38kg6bWk3U98NAjMC+pARD08rqwHzF9cYBprnf3lZYVk2wDeKCPpIItshAQ9RxKTBtsL2GbRrNL4i9KjaZIdeUeefCBh2w9RzJyc2/iOYzOgZrH4Pnk52bL3XfdpmG4ZoIa5DNz0aqPvBfJGoZqBnp5u4eq+WQ7fc0AWSoWKgSIG1e+7xK4qU3V3+6cXqCAAbaRFCPOkWq0yui+qj/sOVJXBK5HH33M+OqyFdMlleUpACYA5EQVk6qaP8ey8REfakMDkvJaMHeeUl69FbYbT5U5OaIDRLLujHPolRD0Vl9/jnMO3ebiY2zBOGCmvDcM+R/tB6+68hIivJo3kdqh6Uyy9D0DI4kqZE+TT6zv5zWsZ1NCeDxBQIRl10jsWdGThpxyxf0qL9+s2dUIBp7Tb3sMDmSqqqoUfB34UI5ITaiRl6FBqj6AHEYuxr9NQFZ+G9A2RtMmlBheOspIrUzPyAFxYQRUIUVFxRoYQiswBtg0U1EVk8pUTZvsj5Mj8puKqOrqaqVmYzYLU9Nb/pfUq9tUNm7cGHc/+2Fm3syNOU3bQR5N4XNLlqNqBpJgOJIfVxzlRYCbN+90paCimloDDASk8vJymLnw3MAOqmBUgQ2KyujOAAEmX6eWFwDF7Hc7tr4qy5cv09/0ftF8wZaFpGsdgYwAtmTR4ghQO7A2ACvyAdjyMWYjAY/3UCNLcOWnbEKhsqHr162RHW++qr+pbOKHxQE1tcu5YFlZTFTvI5uHKMUJP2uYEZli2nTt8nsuFFdUBrn+HFmrybuHcgYoK3QlCYZDOfNvsS0ST+7DWynQL5tYohrT6COMVkoKbjOixKiWdgAA0YHBDddeoyDlgq2ydQLWmfPnyCdu+BCoVJHJRaPl49d+UF587m/yBSgQUgHkTLHJawuQm/MOyDtLS6GEQMcdNecoO4oBJkBBcdePboddIXKoIJitAirClX3uM/8uLzz/N/ngkkslP1slpQDVS1RZweIoQI3GjcoZoYeUsYtHGJ2dt/OLck2RLbCFJMUZKxIw2mSKJpgNkFIDV3R76qf44O30KnnP4MzAkBtde4cxEBq/wZmWkVKrW2EklcziYyDSs8+/GIsPbKRTQCi7hoWLDz1Y7rrjewqIR8oqKlihC/QqufX2u+X+h+ENAnTm8fkICPvLX/xUA5SSeiP7rl4g6AoV2Xtq9iPi9F7tw8xp06UgL8Owj3b7dX1zgEvNMlXhDY3tsqEc4fvBSs+civvyTc5lB+66k0NWx+tuuukzSKOwNmIvff1118h3v3VLRPYYY2v5Nh8pgzfc8qXvIhbjU5H9xbnlcQz0Hlr+7N+lDAFzHWXoeWpvs9Vj47bhlhl6qULOeBIMR/R7Z5YV4wY6szkyh+dfcJlUVEI2pvBiKRSlBAmI3fKXPz+u8QCVQuRRS7Y44On3kG2jzpauBvZ8u3fvlpLSUhg6T9BqFI+dINNV7DqbqCHPtd7b9Bb8o225E/g76k0SBzEEZQy/onKvVO2plhnTZ0kegNPdGr0vUScSHzOyyug54jODZ1x+xdWYa2QqjBPEkvWfMf0EefrpPxhZpr3VUYW9at8TN3/MHR1pYGj36eF5DsM9GcMz6rfXamSRA3yuv/bDqMTDl/EvBT48Tqgzb/nyV+En3AFW0bT1lkHQddE26rS4xZDdLZg3R9MGOOPwKBB6+oP7GFkm+gG+sc4I+sX2PXIK543m3CpKorSY61H0m3WBnJxYWijvhhyVFCQPqdY5cl/P2/o64hRPxDwCYVNLq8Y1NG548UuFslMajF9lbDvt8Fwf+moneW5kzsCwUoackiSr3P8XQ0ENFBEjMp86d0Ev1AphsguuadPld4/cp5Gj9TaAhNXPKkix9EXA6bMxl/W4LojKqKDonQ0l2Dl+GI3biiJYaIfcs33PfZFpiR7r2Z8oteiUKN5+x28YkSoj7Xv6iGNq1ogxc74akKfmwx+9XjZsQlg1JomnyCBGM0UavVvWrVkJIM4yAEy7JtYTkRfGA2h8D47dv0cCIRTPJg/70xoJk3I0vZI0hM6FkoG5THrY+Fm5og+JLOnT/JFrblA2j1QOi2N3Hc0W0c4QleI/uN4cIuCYj1N8sC44BJpKE/xLdpJtqRTTfrOyWPBz9XoroNSNkk/7UXLS+4rygB60heeMG6CX+o22Y86bOmJ/a0Y/N2bUov1El3ioas8B494H/3AN/Y8SHxWHFOiNN1yvqRSo2EoaWUceymF/jNQ1P+yUoXfmklRi7HsUoXtIsqh21vi1kiapa2iR8y68RL+NosMkLXI1qC0e7iE7u2TJEvkCEi0VI2o0TfyorPCKvxw15L518VsKiSwnvSxcwASei8b1i1Jm5h6X3pO+wSI1ew9I5W6jhV2AkF0EENruxbKxGBs6xe4SkFaufhX3QmteVoYo14WqnHFsek/KMHa+3F9epYyyvvh4x+iuU0KPfbK4uGfPIfnvH/8UhtuPay9NThqCqC3uOeDGUfnZ8vyyv0ExlKV9TJb+zYADQnV/i5PB9q+Gt38V8cXbfnxNSTCMn5ER9HcMGLJfBDcsPAYhICAtXfaiZtijcF+9IXR1R4tbpPoCwPSEJiClUH7Mn3u6BAIB2bi5XPMKOxaQ100He33S7JPkwvPPl5zcdKuVpkE1KTL2yFB9bCU+lJW2z37g3Pdvu9Mku8IffAmLJ4yXX937c5kFhQMskqPiQ4bFAjhvQrzCm+FbXLW3Rs1ifEBAUl7f/PqXlDYkS94DDB0J6AEjan9J4dHFr76hQ/7xj39ozuRymzfZeOmEwdrmQ8k0Tdtas+ZVVcJUIaI159YPO0pSgo6S9kyp/mQMxl/dew8icZ+NeYluUvHXJf/uOQNJMOw5JwmPJCnD2GlR6gTFUUaGLTb2fmax+uQHt96FYKqPKCA6ishdT62mA0ha6Gn6S1sICt75DsJ1hSDgCu32GNT0M5/9FAypx1pQtPcThEgtov5I30xPFUz++6f3yk/v+bn+picJgZT1lU6YoJruglwoO3yITAMgCqcEAFqtcs55C6WJ+VLI9nIHx/UE/rvuuF2uXnRZHDVpWPB4RQnHT8vGyur9cg/68P/++Ce0HYiMiR4qgQAi3dBNB8WAHsZh54VzwtQJUZbbQxXaWign/Nj1H0Vmuy8pEGokIYJn3EYUaTT5I2YGRjIY9nzayYc3MmcAC48BQVncwqOXx3e+9WVZvPhKGEFzgZtFrvIvZQ9NqC1+k5LUCC9kTTRIKbPzmVBXhiXEMUCOOxaGrOxPjz0p77tyifzmgd+Z6NYx8jr2JPb1MZShyPPPL0c7VDoYlY3WDxZzT80+DQhrFBUAPPLsKKsRwboZeWAYjouRaJTyJfzBlvKPf3zUivbMtbw+EcVmjIoQZfuB/5Ur3rdY/gh/ahNtm5Ss+fgCJg2BmwdHYata2M5JxA1QexYt6gYIIFx01fvkG98AtYqoNCwEbI7bPZvYu5J/HU0zkATDEfy0qE5QQ15SICgmMjICMgBN+OCUKsOpH93xfVl81ZXKCqsnhoKiobw0coMtpHgM1WPO835+CKpc7A5kDRAZUKqtb5bbbr8LgWa/hwtpgA2gwk0EJEMVak/0w7r5a8PGctRF8LLHPX1YtWpVpD/ODo9uhCykzIycLgrqK9es0XNehY3221Jw7DP7wua+9OVvy/duvR1hvBA1G1eAJtU+On9mXsuPiTzodOuR7ug5MweYdXSB95Ki5v2E5yWLrpK77/w+5isaj1M3F5Rk1OroPPb2y6s4GWp5ob5D9j2M1yK7/vp6O9HbgJLHR84MkJ1UIEOXmIf3v+66XQX7MKVXUKQozWepsyjrx/47AIu8BvaY+duAHH4TdCF8I8X26ONPwObuO3prvGa1fzMSBc2e1xtA6Xm8H0fQR8wCwPpbSEfwOMZuoss4YE9YAzcXu8F4zyuY02QI3wbccB3msSA/FyB4Gz7f1ZnjRoNkDQmrTh4c2TPQF97ps+3rgpE9tGO8d3anc4C4CLI15kD5wKJFquE0KTZAIwEUGWpKKUrlUc3H0J2W/oxyoQYoKG+0RjkECF77B4TH+sGtd6sm2rvLD9dToOKFQ/n+D+6WRx97ygAhOuOlgEnRxYO/EyNE+20oZQU5S11zTgmEi6+6FAFb/4A8K5dx0JgFM5/+uGRcwzUHR0u7I+J9oclCHyWyJScBsY9ZGqGnmEOEGEYK0SzSEDwyxssd8E1e/uwyueG6j6jPrCAJk/oPM/gBPpR9ORY88s2FHvkYFtEN27CPVLgENFvdylWv4tQRUHMDMZ/ki8HprlqzTu576GFAlFEgkT3nJ0LdaltOLEAwc+PHtxuvQr35cK5KS8bLDTdeKy8tf1buYoAJ/M06XGpPRu0ZCYt7IKYxWUd0BqKqthEwK3zBkhrl/j+IMGVZ1NTaWwhP1NDyuwxuat/+xn/Kt7/+nzAr2SYrVqzQ0PirVq/WqzV/CK6dP38eeWnVqG6Bofbfly5DuC7IC0EYpfpTVYYWtBSiggzuu+2Hd8vTj/0vQBaA5DFrYb1UqipL7jpl+2bOmYN6DQ54rzNsrZc89dyY4KfKCVHPD2690wChts36jUSQsk0WUsek8hYuvAARw5GThHJTXMZ5UOc/yhCBnPPnzYNvc46cfvppMmvWDO2fkTeyFktRWIWPuaf/fdWOJMuIn4ERBYacrSQgHtk7Y+g1u3gZHBZl5rQT9GM0zDfpMcUNC1hUpjLSDLmIvfC+YDL7FS+vArBSLoY6FHiiJiebNm6GcfRrCKN1yrDShy8jX/NGBLTVSDp+JKPvRjxEaszRVwU9gBh9qW//4a1SVlKo4yDAEatDoZsU8FiU7bdzwXNES76HOntezCNPrsf6ZrfMRcl/3QwcLVS0fboj68EdLZM33LNGH9ioH6y3N+axkgJSwg3XkfohK8h1zIVPo2Q/jqWoooVeHqQow2AJx8kjD90rF198rlqckCpUE52IZ7Mxz3n08SeHe/jy2BNPKXOrrDHTbwIQXSEQXnj+e5Df+VdKJZsxWjDEHDAGo4Y5A9XIOVEqkBQgSGIXrdqx19FKcT4JhMP+3AerAyMSDDnYJCAOzCMn1aOstKXsgowmjZWvBs8AQgKefpPZxLX8ptHJnT/8gQZcNVpoQwm5OghAS599bmA6eAS1LFv6LO4G4w5emH0jIJoSQoixIgSUvc0AG4Hesstu/N3BLkA/jgMQeUw3DFKTNPj2mAIdQfeSt2IGjqa5HLFgmHyT+jMDfHy9P8IwvTzwn5GlGVaXwBGlfAxVZeow7CVbJUjk5eXI5z79KRBHtEHEQQsW9NBgfQ0NDbJp0xYNUODqP1yPDbCaq3iPAWTTr0T30liapkHEJvbBBUOgac8m5HFuamg2bC8uMLSrySYI83R4ztwMM6NcVRxxhjhmAp0DTmcX6I7puC2vHJVb9z2/ifqcPHb0zkDMSkpqlI/eBzkYPV+4cKHK3ggSCohxpbGxMUJJKWWmHwMq/QXI+DoT/Z2o7daWFntp7Gagsj70mX1PluGdgZFEFfYH23onK4Z3HpOtj4AZyM9Pi/TCS9W5gy3NzfpzqCwAlIW11BsDTMQXbx/z8zPiTyf/Ts5AnzPQAwz7g6B91pg8+Y6ZAYs7vY6nG8oG7v6JgLLXm47ghLed5mZHGSau8HB9T3xX8ug7cQb6i2k9wHAkTcZIIrNH0rwMVV+amrpiIt2ogsGjjBk9ahQUE0bW2J9n5ag6L1Dxd29gqr7KtnjZbipDiouLcB8jzlDbHe0XL6fNZCMSRiXL8M1Af96H4etd4pYTgmF/kTRxlQN79Gic1IGdgeGrbeXKlRrmyhUCkhp1018Z39k5OarUUDACC2tAyYBbbwB3JKNxChR6ymVlZZu+WHBm30z7VI/7NBJOsgzPDIykNftWsCwhGA7PFPbe6kia3N57+c47s3XrVmWDSWnFK0T8AMQZM6YZBYol9QZLgeJm1gEu/545c5qCsrfQa4Z9IEW5adOmd94DOQpGdDSv1V7B8K0g6lA8o6N5kodifgajDVKGBCCfsqNR2SABZ86cuaDEBq7VBMrqhJU7UKb95Dy40LmilKg1iGZf16w2ob8SVpI8OCgzMNLW6FvFsF7BcFBm6wgr5WR7P0dYXfL2BDPgXmgSe9XVyF+Com58apwNqovUGPjUBfPnqBlNf4oLxsrLrctwzG3eY14zGvWecS5wnjtcXmK62tHThHJD9ZRBH7UtCBV3V+8xZj6u8ZgWaZztDLT7M4LkNcfCDBxVYHgsPJDhHCOBUM1XaKuHN6MaeUGiu715VRxlNhEJm95KSYhJfVbA9vp+PUtKSgB4MAoHVUhFDotJF5CCZFR71btEFT52E+2zueTJI5qBo50q5OD7ftuOaHqSNx+NM+AAcfWqteqPzDD89E1WEPRQaUVFxcM+PCa3cooaKlUYndq90lT0rEamPfZ7qOwgh31Ckh04ohlIguERTd8762ZVUFjKsKmpSYGEihJHDeo3qCyGxZo3713DPvj/397V/Vp1VPG5lxsThXtpfbAU4ldSCwRjTL+IrxR4spraWCutWF58Mb5q6kdMTBHSJv4FxkAp8cGkadS31vio6JskArbGpChpfQKsNcC9XNdvzf7ts846e5+Pe/Y5Z/Y5M+Gy98ysWbNmzezfWfP98MOf65IBwGhvCUQZlqU8uJ+EluPMhZ5DAebBKkS19AXDUQcg57CeF7ZIuFoTY3nYiwyLkLfcoUu6R6xCHOowa4f1hqur20vLj1aiWoMi5yU53ksbeXGs16zlzfmnrYGBTToDYtoVOCnpdmzfrmsJ6bieEBMPuH9ZDMQk3P79+8txTYAggRCyr67u0EmUbBVOrqrmxSqEhgaCIYgyIE6uMaXEWbuYxSTK44cPSxc5ziDfxTWksmxlQw57xfFfR44cEv/sJcckz2GRZWMzXoDFu5bxRPf+cHFYg56skwp6z15tWYIaDQwFhhkQa7Q3Z8Eb67I8BVOw4vQ8wFMn5QisjbAiYCNTKHo3M64kPfHNr3cOQ52YDuqXv8RGK/Hy78Tzx8LTctk9jupC1x2H1ULmUz/9iWzZ+1g5gZInUZqvqNR+YMY12pI79n+UKqMVM0qaTFuvAQsYOB/wq09+MXzhkUfC66/HU60PPnYwPPrY59XKAvjAFY8OU8VSABledNFfGYflNVVLbHw41xpGWO501ct1h2KlArNxSjUuxXpZrkl9+itfCn+48OewurY9HD16OOzedV88dqzq/K/hOkSdMuW3Lg2kBoJNVU+rwRBKyIDYVFNwfAA4MnHyCbld7zvflvtCBHzwhzE47P64uxG3vVXnbjscALOOvxeb4pUD3XwGd1gUGIWZ7o6RZTUHH31IgPqhKB9kRUZmzLNazhyaNdDRwOBW1wJtzesv1cxVj+1tusXN7E0Wv06mFN1pyMi7WOxOEpxS7R3wCSDG55Je1VmEiTWJd8WwwoIED4G70poEf5ze3XESh/ugcU+BOKTFq16LmscIvfqzf4AGelvsgASpRmdAbL5moNNoeWNvskxS4AqBYoKl+1QaNCPTlMrF2Z1wAFWv66SJ3W0LdIDgTre6OyZyoixxFlkWAeE4L8lI/RkMe9WdQ/pqYKRuMgYosWYru8XRAC1Ae2eIbnHT/nK3HhQ8iy7qNgFEWHgWBHGAgt6hIk1oE91s3UIni6IBe7A0iXglmOIYGvyhiy5rHRUe4WLGywXwIYTnKqqlCMsQVqQXsEidH1vTQMo/MONOnkAjI4EhEqQMiLQUtlbVOZXXwKb0PwE/AJa7sAjxAqeY5JAQwQAgDS5+MBX1QGrsOgE93Ma8JNtYBOaUcrNcFN3NE/ktbcY+MLBX7D4w7zjJDOFwQhn/F/J1uT8ZQIkr77Obfw00AYTQ0shgiEQpA+L8V/10Sij2VbTsJLt3rr4brl17V8GQi5rx5MwwJlrg9ORpAbYNASmk13uIC/wC7dLySnjnn++FC3/6SwRIdGVl3/O/rr2nabYRvArw3LwLa3A5/PHCxXL2WttfiYmdm/l0K56w2717V9i9Z1ec8ClNzenobJ5zSdUqbAoItf3evn2bfY+R6zLVLnNeUzZyVfYkAJhdvPR2+P4LP5RtbVc0XrvGhdOuLZ2AIYAI43XYtidLsztg2KEq0sNKjBMwWL4DYMPVn9FFPvSCF2g3N2SdY2GVlrkWgImuNxy2CeIdtuy+fQ+Gl14+HQ7sfSACspEhv46ugUUAQmhlLsGQ1Z1BsX/DZ+dVLTsBl9gNlp0mYqX99fJb4dnj3wo3rv+3sAjRqe24jnWGsAhicdCvM/tbn7ufDhncneXYY3e+XRJFD9ZAyljk6uqHwy9fPRP2VwAiz0OkRVsvZ45JFQhRM01aheA3uBXm9jDXGvANAGv2sC3v5MnTAoT/UQsPAITub3zG99h0kDpysDSDFcZ0nfSD0jDvLjodk2QJcJiECIpTagTMb974ILz44qlIXtJEr53UGZTvIsenDISTqJdsGU5Cqy3jGZe1iNACJOiywgZ8YN9npVv7IcGaeJZhHC+kdeghdEYFJsgVXWaMWcLp0hqZVca2vH+8dVG7z8uyEgI9BZDESZ4ZydyibFMHw2wZtqgxtU3UeDKNYmJpcZWnwOC2pcQdDnQtxzUFIHW5DSZuivHGEvQTL0cWbzYa2NJsMkUlMqc6kcJftjx2OFzj0nV/xQyFWlECJDgYVeBErwHojKqUo43DMZ4UlV2yA+lESABinMiJkzI6YS2WIadoJiXKvPFdNKvQtu6x6hKg2LTJOpZALjEqNvXKbbK8W+UVt9lhYDqEJ+V0Gjt7vFWe00xHeVHXWHiNMmwrLEOAe+4eD1cbqX8rk8KascYMvWpTtRApZ7YQu2sM9p0afF2zybJoWSKu33w/HDt+Ilz+2991HDF2l4tNwOX6vVmPHXoLlRfay/KaBz8Tzp/9efjoPaswb8sdKixrWXbfiBfcv6hAiGrPYLjAjd8vrcGHgC4mZpA3xYy6/v7/wplXzoU33/x9uHLlsp4OE50HoVkpsVsOXBmKk6+PHj0Snj/+bLh39SNaHkyeoDzqBPjLpTWzEjvRfBcZCFElCwWGWmCdHchuGA0AFNvsdAdMdkNpIHUgRCEm1T2mgsaaQPFahrCpd5Wj9ZMB0dddlT+DSZVW5i8sA2Gs00bBsC3NJANiS2rKLZbukdrNJvfE54CBGmgDEA4sREMEjYNhG6xD6C4DYkMtaBCbQYA2KH2On5gG2gKEk+4eU8GNgyEYp77+kIXPgDjad4Y1hzzXELrD7hS6u8V9JD0cGx6RwHrH8rwIORNRl8xgLZC4PB7co/2uAJ461J8qrdhpASFKPREwTEud/aXJgNhfPzaWQIgwXMSEyeUbNz8Il2WmufZD26pl2KcLvG/vvrAmM8U4JAyrxC0gDl+axaO060bbYBVOEwjRGhYeDKGEDIijA8O6mGcnT/8s/OLMuXLnRyWXhsEQ+4xX5GDYbzz3TPjxD74rO0uyVVip9z6BbQDCPuJPLKrRpTVeytRnlr28uZvlNdLtx0eELXs4FeZ7L/wo/Oq138jtSyv6Y1K9W2XcpTndS2OQt14Ij36yrCn82lNPhJdOn8S5OvkHrX/VlbEEwjaM7U/bMpwoGKIGMiAO2UoTJFuSk6bheCMdusLYnXLp8tvhiS8/JTbZih7tNQunp9AICP7216+FfXs/rRfI6y4ZNRQjiOI6gUV2fuiiTRbhtIEQ7WTirWUWhRrnA2hTgxmnnFtJG7fkLYU33viddI1nPcKCprussuAgiQ4QbqVk85mmbWOErIVZYcZUWnQbTHL7OeQxxEIbbhJDfygEg5ZlzC5+aIOmisfbAdL/JGp0lzGFIwv9gYvFaTuQfNEtQg/tbfqBnxUQQmcTtwxZMbMspG8cw/jb1ICGKU8TNBxT3b37vgKImuBax2OIpinLeT6+5369fI9nFtZxW9RwO0aYug5mjRFDtLjmVDjrwo5akkUHRJxtYI+9wjpDnHF46NDjYW1tTdWJS51wjD6feO/84W6Urf6pzVf5x/WN9+zcqbLAra/LJfdG3vFs0lFbShr0/gfBtt/Ux+5TwIapgiGaTAqFHqXpLjogWl1hnSGA7t6d28P5c2fDzrUd8R48PUsftxrHSY0mnhEK17vgEHkAHpfEIkTer55/JayJLHB2DeQiAiF0kMcIR/mye2knPpvcm2UMSf2Xysu90MtuirWCADlZ4RzWBfswUXv16r/D2bNnZXb5slfX2P7SInXrFPHBHzhwIDx37JkZVIbVAAAGj0lEQVTwqU/erwCAmWQ4ggFP21nUgyba9AOeknE0MzBE482AODZmTIeBAUO9p1gnUAhAUo8CRnLavnahJ+nAH/neLbbhYdYEXUNYinrfSSHUIoOhHSNM/ftKCQjRbjMYbuHrnZaV2DMGRAQaUma/zszys10qsrP0+KgswMDPcscPbvQRFl8eX4wqmTyNNtoCdeNscqSoqhNvIXmaDp+I7N5flXfKYb68KcsK2VIDw6ksrUm9UkaVj43Of1yj8hlEPyw41PHpGUMS/LKWw6B0bKwlH7H++F4lW1VYXR5bCSdYedCCf6n+dvkyqyV3CYq1nFBWO+64FflymnZrIINhi+vPWwJ1v7QlgEn3sh+YQRWMxy1zvG2O4V2Wo1ipg8BvUPyoqvdgyPQKhvLn8/PgxvQ2Hd49uNbJta04pWfSP4J1+ftwX/8+PvtH00AGw9H0NVVq39g92PmPP17r2S2iBTfGVIUhrgooAYpVcT7vKsV4Gu/3aTxY+Xj6q0CRgGjTAMyt8/wtH5se6Twt+MSlRbg2tXqIIDWwrNNfDq/WwEzHDL1IqQ/4enm931sMVR8U0hAUGG9BAgAI0OsKM1aYBxT47eXp8Fv+HsyqaJnGWoI+HWnI28uBshCMbf519F538CN/S+8ByqahfLD+PKiBDmEELatnhtu6sWHIv44f+SLPOjrS2Kdv176dsFxWJoR5HfsfR6Zry9P/mKcmd7YMG6wRNFbb0H1jZlZs1AJbGmQbCdLwD3H2nQDAcBvv6Twfm5aAaGnwjo/RApqXw+brQVULIg5p7NO/F2T6sDLB7y0uyGOBiWkRxnyQxoKeBzL6PY3nbfkgH8bb9Hyn3KSpkps8tJzFtsZStmLsEiA5THthufNzchpAe8pg2LB+PSBa9vaX3Vp//LBBWwViPswCjgUlfqSk96DHeB/u6SGH5UW5bF5WJit/VTpbLqsPggPDqvwWjEhnwQfvVYCFMAuA/p1ABp6Wh/XX8QA9yuytUpsH+PgxS+qJ8m7KYnVM6nhQtDrK79PTQAbDCeiagOi7NX52lsABEaoAzgIOaTzgWRpYdT4NLT0PgN6PdEyPvGw8/TYe9PiobZ4eCL2fZeyn8jqQIoAgrQUvC0h4Hwb0mAdpyc+G2zDkSWBEuK03xuFJ8CvBrrCSmdaWgTrQ+ipAUctmjh2r604zbX42owG2y6TGDFk0P8bSTJFnx6UOBFkJeNaBHKRmvH447q8K1Cw9+eJJWj7Bm2BGOuzxxUete32LvKrSepBlOoSTJz5+mz/Ly5qgnyBB0CjbQWH1AYA8YFUBl6djGgIm03iLjuHM3+ZFgKsKs+msPDYcZbH50s8yIs7S4H3e2j/KlOJ4oW+PSVqGVNw8Ngp+BFVPD3SsrEGA59N5em2MAoaeDuE2jH4AG/6YzoKoBU+kJVAi/M6dO+ovaeRU6g3ZHUK+lo9tiAQh+8T7yspKaZHB70HNx8OPPEiLPPDOvJie4T4/AB5l1Rdx4AdH0LJhpI+U8X/QV4Uj1pbZ82Q88kH7n6e2nyIQ2jrje5JgWCVoG8P8xEjqZSBIEFAgLz5sfsT4UAkK9p0fMuhoSZVp5PY6OAAkgcnyRBx54YnlKege4t1bdtY6s++W1vKy7z6fqjQq6IxdWQdzAohtAUJUewbDKTT+KovAh0EMfKB0eLcghHdaVnjnRzMo3BaPtAiz+dP6QRhAhn7b3WVaAhkBk+HsNoM301Nehtk8rQwsN8HL6qAKtCAD/uBsvLccSUfgJL2nY74eYMmb6SydD6vj4enoV+FrHOu2Jro1wW0CQig1yTFDX9vz0mXoN3aIjwkfQRVgWVBhPIHFAiR42G4s9Gh5+ndPT558khf5sOvs82Y8nhZYPT/G+fqlnwDn/ZATjlYn4+m38QQlPH08+fNp4226KlBEnuiGwzE/C7IEXh8Pv+Vn48lHmYor+c7B3S0pAyHbJfVe6v/WrVubvlI8USr+eQVFWzkELOjcgo4HGcSh3vC0gMj0Nq0N47u13pCX5U+/l4U8+fSWo5WZNDZs1HZEgEI6/44wghrbL2n4HCbe87VpPV8Ppj5tVbyXnX77pF7mrX2zXKk9bdu0sulPHSJZ8akJPo/ysNHL/K4Wz+reAxDi8ZFZILLgh3hYODae757O0zAePKrytXxA4wHTpkG8p4FcHsRJV/X0bZB+D2pMa8EKYVVAxnD7tKBVxwPhPl/vJ08fTjksb9T5IkwMpmwRVrU5G/Z/lZ9QRvc3PswAAAAASUVORK5CYII=;" vertex="1" parent="1">
          <mxGeometry x="631.59" y="-250" width="100" height="94.43" as="geometry" />
        </mxCell>
        <mxCell id="QbFYxGlI5FDIJ1ta77sb-3" value="знання" style="shape=image;html=1;verticalAlign=top;verticalLabelPosition=bottom;labelBackgroundColor=#ffffff;imageAspect=0;aspect=fixed;image=https://cdn1.iconfinder.com/data/icons/education-692/453/5-128.png" vertex="1" parent="1">
          <mxGeometry x="643" y="-345" width="70" height="70" as="geometry" />
        </mxCell>
        <mxCell id="QbFYxGlI5FDIJ1ta77sb-4" style="rounded=0;orthogonalLoop=1;jettySize=auto;html=1;" edge="1" parent="1" source="QbFYxGlI5FDIJ1ta77sb-7" target="QbFYxGlI5FDIJ1ta77sb-3">
          <mxGeometry relative="1" as="geometry" />
        </mxCell>
        <mxCell id="QbFYxGlI5FDIJ1ta77sb-5" style="rounded=0;orthogonalLoop=1;jettySize=auto;html=1;" edge="1" parent="1" source="QbFYxGlI5FDIJ1ta77sb-7" target="QbFYxGlI5FDIJ1ta77sb-2">
          <mxGeometry relative="1" as="geometry" />
        </mxCell>
        <mxCell id="QbFYxGlI5FDIJ1ta77sb-6" style="edgeStyle=orthogonalEdgeStyle;rounded=0;orthogonalLoop=1;jettySize=auto;html=1;" edge="1" parent="1" source="QbFYxGlI5FDIJ1ta77sb-7" target="QbFYxGlI5FDIJ1ta77sb-11">
          <mxGeometry relative="1" as="geometry">
            <Array as="points">
              <mxPoint x="536" y="-200" />
            </Array>
          </mxGeometry>
        </mxCell>
        <mxCell id="QbFYxGlI5FDIJ1ta77sb-7" value="користувач" style="verticalLabelPosition=bottom;html=1;verticalAlign=top;align=center;strokeColor=none;fillColor=#00BEF2;shape=mxgraph.azure.user;" vertex="1" parent="1">
          <mxGeometry x="512.5" y="-275" width="47.5" height="50" as="geometry" />
        </mxCell>
        <mxCell id="QbFYxGlI5FDIJ1ta77sb-8" style="edgeStyle=orthogonalEdgeStyle;rounded=0;orthogonalLoop=1;jettySize=auto;html=1;" edge="1" parent="1" source="QbFYxGlI5FDIJ1ta77sb-9" target="QbFYxGlI5FDIJ1ta77sb-7">
          <mxGeometry relative="1" as="geometry" />
        </mxCell>
        <mxCell id="QbFYxGlI5FDIJ1ta77sb-9" value="information objects" style="rounded=0;whiteSpace=wrap;html=1;" vertex="1" parent="1">
          <mxGeometry x="364.00000000000006" y="-300" width="96" height="35" as="geometry" />
        </mxCell>
        <mxCell id="QbFYxGlI5FDIJ1ta77sb-10" style="edgeStyle=orthogonalEdgeStyle;rounded=0;orthogonalLoop=1;jettySize=auto;html=1;" edge="1" parent="1" source="QbFYxGlI5FDIJ1ta77sb-11" target="QbFYxGlI5FDIJ1ta77sb-9">
          <mxGeometry relative="1" as="geometry">
            <Array as="points">
              <mxPoint x="309" y="-270" />
              <mxPoint x="310" y="-270" />
              <mxPoint x="310" y="-282" />
            </Array>
          </mxGeometry>
        </mxCell>
        <mxCell id="QbFYxGlI5FDIJ1ta77sb-11" value="Ideation tool" style="shape=image;verticalLabelPosition=bottom;labelBackgroundColor=default;verticalAlign=top;aspect=fixed;imageAspect=0;image=https://www.pngkey.com/png/detail/122-1226437_computer-logo-mobile-app-application-icon-png-transparent.png;" vertex="1" parent="1">
          <mxGeometry x="254" y="-250" width="110" height="91.62" as="geometry" />
        </mxCell>
      </root>
    </mxGraphModel>
  </diagram>
</mxfile>
